<?xml version="1.0" encoding="UTF-8" standalone="no"?>
<svg
   xmlns:dc="http://purl.org/dc/elements/1.1/"
   xmlns:cc="http://creativecommons.org/ns#"
   xmlns:rdf="http://www.w3.org/1999/02/22-rdf-syntax-ns#"
   xmlns:svg="http://www.w3.org/2000/svg"
   xmlns="http://www.w3.org/2000/svg"
   xmlns:sodipodi="http://sodipodi.sourceforge.net/DTD/sodipodi-0.dtd"
   xmlns:inkscape="http://www.inkscape.org/namespaces/inkscape"
   width="640"
   height="480"
   id="svg3650"
   version="1.1"
   inkscape:version="0.91 r13725"
   sodipodi:docname="textures.svg">
  <metadata
     id="metadata3908">
    <rdf:RDF>
      <cc:Work
         rdf:about="">
        <dc:format>image/svg+xml</dc:format>
        <dc:type
           rdf:resource="http://purl.org/dc/dcmitype/StillImage" />
        <dc:title />
      </cc:Work>
    </rdf:RDF>
  </metadata>
  <defs
     id="defs3906" />
  <sodipodi:namedview
     pagecolor="#ffffff"
     bordercolor="#666666"
     borderopacity="1"
     objecttolerance="10"
     gridtolerance="10"
     guidetolerance="10"
     inkscape:pageopacity="0"
     inkscape:pageshadow="2"
     inkscape:window-width="1855"
     inkscape:window-height="1056"
     id="namedview3904"
     showgrid="false"
     inkscape:zoom="1.4142136"
     inkscape:cx="407.63257"
     inkscape:cy="247.43564"
     inkscape:window-x="1985"
     inkscape:window-y="24"
     inkscape:window-maximized="1"
     inkscape:current-layer="svg3650"
     inkscape:snap-text-baseline="false"
     showguides="false" />
  <text
     style="font-size:12px;font-family:'Bitstream Vera Sans'"
     x="242.24373"
     y="247.86856"
     font-size="12px"
     xml:space="preserve"
     id="text2419" />
  <g
     id="g4748"
     transform="translate(-229.67916,-96.555656)"
     inkscape:export-xdpi="300"
     inkscape:export-ydpi="300">
    <path
       inkscape:connector-curvature="0"
       d="m 597.05636,223.84825 34.673,0 c 3.1186,0 5.6294,2.2456 5.6294,5.0351 l 0,35.862 c 0,2.7894 -2.5107,5.0351 -5.6294,5.0351 l -34.673,0 c -3.1186,0 -5.6294,-2.2457 -5.6294,-5.0351 l 0,-35.862 c 0,-2.7895 2.5107,-5.0351 5.6294,-5.0351 z"
       id="rect2787"
       style="fill:#ff50a2;fill-opacity:1;stroke:none;stroke-width:2.7019999;stroke-linecap:round;stroke-linejoin:round;stroke-miterlimit:13.65400028" />
  </g>
  <g
     inkscape:export-ydpi="300"
     inkscape:export-xdpi="300"
     transform="translate(-229.67915,-32.113907)"
     id="g4182">
    <path
       style="fill:#2f2930;stroke:none;stroke-width:2.7019999;stroke-linecap:round;stroke-linejoin:round;stroke-miterlimit:13.65400028"
       id="path4184"
       d="m 597.05636,223.84825 34.673,0 c 3.1186,0 5.6294,2.2456 5.6294,5.0351 l 0,35.862 c 0,2.7894 -2.5107,5.0351 -5.6294,5.0351 l -34.673,0 c -3.1186,0 -5.6294,-2.2457 -5.6294,-5.0351 l 0,-35.862 c 0,-2.7895 2.5107,-5.0351 5.6294,-5.0351 z"
       inkscape:connector-curvature="0" />
  </g>
  <circle
     inkscape:export-ydpi="90"
     inkscape:export-xdpi="90"
     inkscape:export-filename="/home/felix/Projekts/ld35/core/assets/circle.png"
     r="19.999987"
     cy="30.25869"
     cx="119.59132"
     id="circle4675"
     style="opacity:1;fill:#ff0000;fill-opacity:1" />
  <rect
     inkscape:export-ydpi="90"
     inkscape:export-xdpi="90"
     inkscape:export-filename="/home/felix/Projekts/ld35/core/assets/square.png"
     y="10.25869"
     x="37.679047"
     height="40"
     width="40"
     id="rect4683"
     style="opacity:0.98999999;fill:#008000;fill-opacity:1" />
  <g
     id="g4235"
     inkscape:export-xdpi="2304"
     inkscape:export-ydpi="2304"
     transform="translate(-40,0)">
    <rect
       y="10.258694"
       x="201.5036"
       height="40"
       width="40"
       id="rect4233"
       style="opacity:0.98999999;fill:none;fill-opacity:1;stroke:none;stroke-width:2.7019999;stroke-miterlimit:13.65400028;stroke-dasharray:none;stroke-opacity:1" />
    <path
       sodipodi:type="star"
       style="opacity:1;fill:#ffff00;fill-opacity:0.98823529;stroke:none;stroke-width:2.7019999;stroke-miterlimit:13.65400028;stroke-dasharray:none;stroke-opacity:1"
       id="path4693"
       sodipodi:sides="3"
       sodipodi:cx="221.5036"
       sodipodi:cy="36.032196"
       sodipodi:r1="23.094011"
       sodipodi:r2="11.547004"
       sodipodi:arg1="0.52359878"
       sodipodi:arg2="1.5707963"
       inkscape:flatsided="true"
       inkscape:rounded="0"
       inkscape:randomized="0"
       d="m 241.5036,47.579202 -40,0 20,-34.641017 z"
       inkscape:transform-center-y="-5.7735018" />
  </g>
  <path
     transform="matrix(0.03740457,0,0,0.037465,222.96703,58.71221)"
     inkscape:transform-center-y="0.54748201"
     inkscape:transform-center-x="0.48124477"
     d="m 745.42813,-1293.3009 10.50281,325.64114 325.45726,15.16737 -248.04812,211.24537 191.06092,263.90943 -319.81372,-62.22249 -87.20814,313.9223 -150.75311,-288.83554 -299.80773,127.54528 131.82769,-297.94954 -286.645972,-154.87594 315.139552,-82.70146 -57.63395,-320.67242 261.1449,194.8225 z"
     inkscape:randomized="0"
     inkscape:rounded="0"
     inkscape:flatsided="false"
     sodipodi:arg2="-0.77823416"
     sodipodi:arg1="-1.2270331"
     sodipodi:r2="275.74203"
     sodipodi:r1="551.48407"
     sodipodi:cy="-774.08252"
     sodipodi:cx="559.56006"
     sodipodi:sides="7"
     id="path4701"
     style="opacity:1;fill:#ff6600;fill-opacity:1"
     sodipodi:type="star" />
  <path
     style="fill:#000000"
     d=""
     id="path4791"
     inkscape:connector-curvature="0" />
  <g
     id="g3512">
    <rect
       y="237.75589"
       x="46.318592"
       height="143.54662"
       width="143.54662"
       id="rect4847"
       style="opacity:0.98999999;fill:none;fill-opacity:1;stroke:none;stroke-width:2.7019999;stroke-miterlimit:13.65400028;stroke-dasharray:none;stroke-opacity:1" />
    <path
       style="fill:#ff50a2;fill-opacity:1"
       d="m 141.55119,380.09843 c -0.88853,-0.2184 -2.41061,-1.02515 -2.46235,-1.30513 -0.0532,-0.28819 0.77594,-2.15949 1.06215,-2.39702 0.1066,-0.0885 0.19211,-0.43003 0.19211,-0.76735 0,-0.55628 0.0671,-0.66924 0.7898,-1.32975 0.43439,-0.397 1.1746,-1.02414 1.64491,-1.39365 0.58864,-0.46246 1.11625,-1.07242 1.69311,-1.95734 0.4609,-0.70704 1.08513,-1.60531 1.38717,-1.99616 2.16914,-2.80685 3.47537,-5.22089 4.07597,-7.53282 0.69275,-2.66665 0.75846,-6.92367 0.11801,-7.64518 -0.15332,-0.17271 -0.58131,-0.80812 -0.95112,-1.41202 -0.3698,-0.6039 -0.72977,-1.13348 -0.79994,-1.17684 -0.0702,-0.0434 -0.19797,0.19489 -0.28402,0.52948 -0.56665,2.20336 -0.46337,2.03427 -2.54128,4.16034 -2.67191,2.7338 -3.3927,3.59763 -4.46732,5.3539 -0.50992,0.83337 -1.42785,2.26188 -2.03983,3.17448 -0.61199,0.91259 -1.26228,1.91122 -1.4451,2.21919 -0.41477,0.69871 -1.19612,1.11108 -2.34681,1.23855 l -0.87401,0.0968 0.0213,0.56811 c 0.0117,0.31245 0.0678,0.8696 0.12451,1.2381 0.0961,0.62386 0.0786,0.68119 -0.25376,0.83264 -0.28828,0.13135 -0.37518,0.29992 -0.45162,0.87613 -0.12851,0.96881 -0.61097,1.43991 -1.72351,1.68289 -1.18831,0.25953 -2.55812,0.24247 -3.47313,-0.0433 -1.10177,-0.34405 -2.55831,-1.32395 -2.55831,-1.72113 0,-0.38146 1.06029,-2.03301 1.43338,-2.23268 0.19594,-0.10487 0.27216,-0.29924 0.27216,-0.69406 0,-0.51945 0.0506,-0.58197 0.95937,-1.18455 0.52765,-0.34988 1.45054,-0.93405 2.05087,-1.29814 0.66348,-0.4024 1.33107,-0.95306 1.70247,-1.40429 0.33603,-0.40828 1.57368,-1.73366 2.75033,-2.9453 3.11119,-3.20374 4.27704,-5.13829 5.1373,-8.52457 0.46409,-1.82681 0.61231,-4.39234 0.28283,-4.8952 -0.12883,-0.19662 -0.3671,-0.69535 -0.52947,-1.10827 -0.9473,-2.40909 -2.42141,-5.08245 -3.90147,-7.0755 -1.90469,-2.56484 -3.31124,-4.68891 -3.71848,-5.61536 -0.17149,-0.39015 -0.49129,-1.33276 -0.71064,-2.0947 l -0.39883,-1.38534 -1.53261,-4.3e-4 c -1.36209,-4.3e-4 -1.70209,-0.0554 -3.05577,-0.49451 -2.7759,-0.90046 -5.046,-1.53084 -7.70574,-2.13978 -3.4432,-0.78831 -5.48238,-1.38555 -6.78385,-1.98687 -1.21511,-0.56141 -2.78362,-1.63659 -3.10657,-2.12946 -0.40357,-0.61592 -5.86674,-5.48385 -8.50298,-7.57653 -0.55393,-0.43972 -1.34132,-1.1134 -1.74976,-1.49707 -0.620226,-0.58262 -0.80762,-0.68455 -1.13703,-0.61845 -0.48648,0.0976 -1.948638,-0.25974 -2.533675,-0.61923 -0.330852,-0.2033 -0.782707,-0.93366 -1.905135,-3.07939 -0.80928,-1.54707 -1.79632,-3.32454 -2.193424,-3.94989 -2.633613,-4.14745 -7.60858,-10.71497 -8.812054,-11.6329 l -0.513199,-0.39144 0,0.4411 c 0,0.67545 -0.948429,5.3278 -1.347253,6.60873 -0.195516,0.62794 -0.354983,1.49021 -0.356156,1.92583 -0.0017,0.70581 0.06237,0.87778 0.610497,1.63448 0.33695,0.46512 0.823456,1.28046 1.081124,1.81186 0.440346,0.90814 0.458657,1.00522 0.304801,1.61623 -0.20005,0.79447 -0.08426,0.95426 0.323773,0.4468 0.473537,-0.58894 1.007836,-0.73583 1.619983,-0.44534 0.279063,0.13242 0.607752,0.41564 0.730423,0.62938 0.122662,0.21373 0.428827,0.48675 0.680354,0.60669 0.8563,0.40834 1.116904,2.2852 0.618289,4.45282 -0.374867,1.62962 -0.694383,2.33039 -1.396114,3.06199 -0.787737,0.82126 -1.034782,0.74827 -2.402665,-0.70985 -0.64209,-0.68442 -1.268135,-1.34036 -1.391223,-1.45761 -0.323782,-0.30844 -1.025687,-1.02035 -1.331235,-1.35022 -0.144822,-0.15634 -0.726375,-0.57173 -1.292345,-0.92309 -1.11098,-0.68969 -1.339817,-1.00118 -1.58767,-2.16111 -0.09718,-0.45484 -0.294273,-0.87728 -0.497468,-1.06627 -0.185083,-0.17216 -0.336515,-0.40209 -0.336515,-0.51096 0,-0.10887 -0.122185,-0.30853 -0.271524,-0.44367 -0.149329,-0.13515 -0.375283,-0.67271 -0.502115,-1.19459 l -0.230601,-0.94886 0.712529,-2.80672 c 0.635123,-2.50181 0.883097,-3.92835 1.454236,-8.36593 0.16573,-1.28772 0.09139,-1.97425 -0.213775,-1.97425 -0.100582,0 -0.722953,0.21759 -1.38305,0.48353 -0.660097,0.26595 -1.558335,0.58749 -1.996084,0.71453 -0.738423,0.21432 -0.808176,0.27195 -0.965819,0.7981 -0.214322,0.71537 -0.813857,1.28458 -2.062344,1.95806 -0.539823,0.29119 -1.046994,0.63329 -1.127049,0.76019 -0.104907,0.16631 -0.06454,0.50259 0.144639,1.20432 0.317605,1.06554 0.24231,1.6407 -0.249207,1.90376 -0.145465,0.0778 -0.329298,0.38227 -0.408527,0.6765 -0.246359,0.91488 -0.454583,1.09073 -1.250572,1.0561 -1.017391,-0.0443 -3.380775,-0.67393 -4.371237,-1.16461 -1.013604,-0.50214 -1.675934,-1.09804 -2.062371,-1.85551 -0.544592,-1.06749 -0.474944,-1.17467 1.316859,-2.02637 1.193805,-0.56746 1.642855,-0.85526 1.770069,-1.13446 0.117937,-0.25885 0.35857,-0.43007 0.781039,-0.55573 0.402394,-0.11969 0.883532,-0.44941 1.411107,-0.96704 0.700029,-0.68681 0.812494,-0.87461 0.895945,-1.49605 0.215895,-1.60781 0.242432,-1.63672 2.671981,-2.91041 2.746885,-1.44005 3.854295,-1.85599 5.367355,-2.01602 1.028137,-0.10873 1.478628,-0.22605 1.888519,-0.49182 1.000243,-0.64854 2.726914,-1.19073 3.792055,-1.19073 0.76794,0 1.237924,-0.10311 2.247888,-0.49315 1.529513,-0.5907 2.479193,-0.81899 2.933072,-0.70507 0.191416,0.048 0.563946,0.41631 0.868617,0.85867 0.877138,1.27357 2.661583,2.82069 5.101582,4.42311 2.114976,1.38896 4.04075,2.85737 4.684204,3.57172 0.325718,0.36161 0.435681,0.30396 0.80643,-0.42277 0.416936,-0.81725 1.151746,-1.58022 2.763316,-2.86919 2.88865,-2.3104 3.83514,-3.50843 5.66163,-7.16624 0.8723,-1.74692 1.03719,-2.36575 1.29813,-4.87201 0.12616,-1.21165 0.26382,-2.37889 0.30592,-2.59385 0.0482,-0.24631 0.0154,-0.39086 -0.0888,-0.39086 -0.091,0 -0.97546,0.37521 -1.96556,0.8338 -0.9901,0.45859 -2.01528,0.90549 -2.27819,0.99311 -0.26291,0.0876 -1.1903,0.57097 -2.06086,1.07408 -0.87057,0.50311 -1.93462,1.01905 -2.364559,1.14654 -1.21977,0.36169 -1.434057,0.51155 -2.244926,1.57008 -0.976538,1.27478 -1.584325,1.58734 -2.608778,1.34158 -0.388262,-0.0931 -0.878077,-0.30599 -1.088482,-0.47298 -0.210396,-0.16699 -0.614519,-0.42138 -0.898047,-0.56531 -0.843156,-0.42802 -1.369455,-1.00053 -1.540084,-1.67531 -0.155254,-0.61398 -0.231583,-0.79656 -0.669392,-1.60121 -0.20435,-0.37557 -0.203438,-0.48475 0.01051,-1.25419 0.355417,-1.27835 1.064854,-2.5719 2.44032,-4.44955 3.504827,-4.7844 4.53477,-6.38617 4.677976,-7.27517 0.05368,-0.3332 0.296158,-0.86247 0.546773,-1.19344 0.247679,-0.32709 0.52794,-0.69797 0.622806,-0.82419 0.09486,-0.1262 0.272392,-0.70842 0.394507,-1.2938 0.122123,-0.58538 0.256373,-1.19226 0.298347,-1.3486 0.0648,-0.24145 0.03188,-0.23075 -0.218631,0.0711 -0.287646,0.34654 -0.300128,0.34856 -0.504635,0.0818 -0.190877,-0.249 -0.274563,-0.25856 -0.932897,-0.1066 -0.953371,0.22007 -1.581849,0.211 -1.908071,-0.0275 -0.257564,-0.18835 -0.25647,-0.19957 0.03457,-0.35533 0.165287,-0.0885 0.491379,-0.16084 0.724629,-0.16084 0.233259,0 0.531902,-0.0413 0.66365,-0.0919 0.190382,-0.073 0.146472,-0.13105 -0.213958,-0.2826 -0.729346,-0.30667 -0.462331,-0.54855 0.612556,-0.5549 0.543194,-0.003 1.018703,-0.0788 1.117555,-0.17765 0.134685,-0.13468 0.08096,-0.17451 -0.247201,-0.18326 -0.515075,-0.0137 -1.681223,-0.70137 -1.744235,-1.02852 -0.05976,-0.31047 0.302743,-0.31047 0.776557,-1e-5 0.352855,0.2312 0.374598,0.22752 0.631423,-0.1066 0.335283,-0.43621 0.334553,-0.47459 -0.02562,-1.34348 -0.252334,-0.60881 -0.274511,-0.80548 -0.145039,-1.2863 0.206592,-0.76721 0.515111,-1.17737 0.727948,-0.96776 0.120108,0.11828 0.121333,0.31079 0.0043,0.74384 -0.127544,0.47366 -0.116243,0.66373 0.05968,1.00397 0.317302,0.61359 0.476612,0.64941 0.75227,0.16911 0.171272,-0.29842 0.37319,-0.44194 0.662833,-0.47112 0.229099,-0.0231 0.445878,-0.13118 0.481728,-0.24022 0.0515,-0.15658 -0.0658,-0.18229 -0.557569,-0.1223 -0.342519,0.0418 -0.73468,0.12184 -0.871484,0.17792 -0.191538,0.0785 -0.248721,0.0315 -0.248721,-0.20474 0,-0.22041 0.149981,-0.36887 0.532979,-0.52759 0.293143,-0.12148 0.549804,-0.23631 0.570365,-0.25517 0.02059,-0.0188 -0.198556,-0.28395 -0.486914,-0.58911 -0.288366,-0.30515 -0.738701,-1.01821 -1.000756,-1.58459 -0.267727,-0.57865 -0.634046,-1.13305 -0.83619,-1.2655 -0.43146,-0.28269 -1.567891,-1.84185 -1.774517,-2.43458 -0.08105,-0.23254 -0.406563,-0.63107 -0.723335,-0.88564 -0.316779,-0.25457 -0.892748,-0.95 -1.279932,-1.54541 -0.387193,-0.59541 -0.984147,-1.37037 -1.32657,-1.72213 -0.342422,-0.35177 -0.930178,-1.03395 -1.306122,-1.51597 -0.375944,-0.48201 -1.435038,-1.75526 -2.353542,-2.82941 -0.918504,-1.07417 -1.670009,-2.00892 -1.670009,-2.07724 0,-0.0684 0.09672,-0.16133 0.214922,-0.20669 0.137664,-0.0528 0.599682,0.2681 1.28524,0.89276 0.588676,0.53639 1.557961,1.37581 2.15396,1.8654 0.596008,0.48959 1.417232,1.19313 1.824951,1.56342 0.407719,0.37028 1.139862,0.96106 1.626975,1.31282 0.487114,0.35177 1.049045,0.85166 1.248739,1.11086 0.199686,0.25921 0.624083,0.60219 0.943113,0.76217 0.889968,0.44634 2.024662,1.34235 2.308572,1.82298 0.164097,0.27779 0.434239,0.48091 0.75577,0.56826 0.727166,0.19754 1.948785,1.06904 2.391355,1.70598 0.24361,0.3506 0.53834,0.58656 0.80948,0.64808 0.55728,0.12644 1.67581,0.69285 1.89879,0.96153 0.10922,0.13159 0.41073,0.20777 0.79912,0.20191 0.36797,-0.005 0.77872,0.0921 1.00175,0.23826 0.35806,0.23461 0.4254,0.23487 1.27575,0.004 l 0.89773,-0.243 0.29627,-0.81253 c 0.31499,-0.8639 0.74293,-1.37684 1.01064,-1.21139 0.0902,0.0558 0.12559,0.24797 0.0795,0.4316 -0.0844,0.33593 0.13087,0.63358 0.23412,0.32384 0.0325,-0.0975 0.16164,-0.12811 0.30619,-0.0726 0.1787,0.0686 0.22273,0.18187 0.15438,0.39724 -0.0887,0.27957 -0.0561,0.29552 0.45211,0.22129 1.2554,-0.18336 1.26005,-0.18291 1.23067,0.1193 -0.0226,0.23191 0.0571,0.28499 0.42639,0.28426 0.3751,-7.2e-4 0.44727,0.0494 0.41481,0.28839 -0.0316,0.23274 0.0811,0.32151 0.57664,0.45405 0.33878,0.0906 0.93209,0.38028 1.31847,0.64372 1.11256,0.75855 1.12592,0.76262 0.82955,0.25273 -0.14805,-0.25472 -0.48446,-0.64204 -0.74759,-0.8607 -0.46349,-0.38518 -0.50094,-0.70804 -0.0821,-0.70804 0.32998,0 1.27206,0.93706 1.64071,1.63197 0.34722,0.65452 0.46945,0.75224 0.62536,0.49996 0.3191,-0.51631 1.34019,0.47051 1.64038,1.58532 0.081,0.30063 0.19414,0.5466 0.25152,0.5466 0.27305,0 0.6124,-0.9811 0.56944,-1.64629 -0.0353,-0.54565 0.002,-0.69882 0.16742,-0.69882 0.24181,0 0.58404,0.89853 0.60901,1.59894 0.0148,0.41517 0.0604,0.46255 0.45022,0.46815 0.23855,0.003 0.68957,0.0984 1.00225,0.21106 0.31269,0.11265 0.7604,0.20665 0.99491,0.20889 0.70743,0.007 1.06596,0.15583 1.06596,0.44316 0,0.24184 -0.12691,0.26905 -1.31468,0.28185 -0.72309,0.008 -1.47459,0.0706 -1.67002,0.13958 -0.23755,0.0838 -0.002,0.1028 0.71064,0.0572 1.18192,-0.0757 2.24419,0.14416 3.07991,0.63725 0.28291,0.16692 0.6035,0.26929 0.71242,0.2275 0.29985,-0.11507 0.39524,0.32153 0.13345,0.6108 -0.12674,0.14005 -0.23043,0.32794 -0.23043,0.41754 0,0.10485 -0.16467,0.13548 -0.46192,0.0859 -0.37751,-0.0629 -0.41647,-0.048 -0.2132,0.0817 0.13681,0.0873 0.24873,0.28022 0.24873,0.4288 0,0.14856 0.11139,0.33246 0.24754,0.40865 0.13615,0.0762 0.20236,0.18372 0.14713,0.23895 -0.0553,0.0553 -0.0379,0.21723 0.0386,0.36001 0.1949,0.36415 -0.17044,0.52939 -1.42905,0.64637 -1.25266,0.11641 -1.04043,0.31466 0.46542,0.43475 0.56534,0.0451 1.14063,0.13989 1.27843,0.21067 0.38271,0.19661 0.0626,0.65366 -0.53652,0.76606 -0.58973,0.11063 -0.60787,0.19071 -0.14223,0.62815 l 0.35349,0.33209 0.83927,-0.25411 c 1.05419,-0.31918 1.3209,-0.19476 0.78393,0.36571 l -0.39357,0.41081 0.39126,0 c 0.21519,0 0.52184,0.0699 0.68143,0.15529 0.20985,0.1123 0.33316,0.1123 0.44547,0 0.0854,-0.0854 0.27472,-0.15529 0.4207,-0.15529 0.19476,0 0.24291,0.0709 0.1809,0.26628 -0.0705,0.22224 0.0513,0.31041 0.73659,0.53298 0.6207,0.20161 0.83156,0.33986 0.86391,0.56646 0.0343,0.24067 -0.0357,0.30313 -0.35532,0.31689 -1.21243,0.0522 -1.84466,0.2012 -2.01569,0.47507 -0.24238,0.38811 -0.15071,0.44124 0.76141,0.44124 0.43181,0 0.7851,0.0548 0.7851,0.12182 0,0.067 0.35597,0.12182 0.79105,0.12182 0.95105,0 1.44064,0.206 1.19449,0.50259 -0.13033,0.15703 -0.058,0.32874 0.34615,0.82196 0.28098,0.34291 0.51088,0.69305 0.51088,0.7781 0,0.32562 -0.32022,0.32974 -0.67286,0.009 -0.33316,-0.30335 -0.35783,-0.30807 -0.26365,-0.0504 0.0572,0.15634 0.13641,0.60404 0.17611,0.9949 0.0397,0.39085 0.14279,0.8562 0.22909,1.0341 0.13855,0.28567 0.0868,0.39494 -0.44333,0.93506 -0.53705,0.5472 -0.58524,0.65101 -0.45781,0.98618 0.15489,0.40738 0.0265,0.5783 -0.33133,0.44099 -0.30526,-0.11714 -0.29794,-0.0874 0.27056,1.09885 0.27313,0.56991 0.53264,1.26267 0.57671,1.53946 0.15896,0.99852 0.20753,1.11013 0.51849,1.19145 l 0.31574,0.0826 -0.3182,0.33871 c -0.34057,0.36251 -0.30206,0.73839 0.10741,1.04844 0.18018,0.13643 0.18784,0.20271 0.0406,0.35191 -0.14736,0.14937 -0.12355,0.22743 0.12704,0.41645 0.38557,0.29084 0.23975,0.5559 -0.30583,0.5559 -0.38082,0 -0.40781,0.0332 -0.33262,0.40914 0.12757,0.63785 -0.18312,0.65606 -0.57596,0.0338 -0.33158,-0.52526 -0.84925,-0.85953 -1.03831,-0.67048 -0.0454,0.0454 0.0713,0.2416 0.25944,0.4359 0.74862,0.77313 0.91057,1.01415 0.91057,1.3551 0,0.3122 0.0604,0.35477 0.49745,0.35076 0.2736,-0.003 0.7373,-0.0533 1.03044,-0.11304 0.47475,-0.0966 0.53298,-0.0773 0.53298,0.17652 0,0.20935 -0.1509,0.3302 -0.56852,0.45532 -0.31268,0.0937 -0.56851,0.21625 -0.56851,0.27237 0,0.0561 0.35402,0.13139 0.78671,0.16726 0.43269,0.0359 0.85563,0.13418 0.93988,0.21842 0.31579,0.31579 -0.0537,0.46219 -1.16647,0.46219 -1.24211,0 -1.36217,0.1061 -0.72594,0.64145 0.59767,0.5029 1.31114,1.9404 1.40253,2.82576 0.0807,0.78227 -0.10322,1.13422 -0.42475,0.81269 -0.23714,-0.23715 -0.57264,-0.19601 -0.47506,0.0582 0.0457,0.11903 -0.0411,0.34054 -0.19281,0.49226 -0.30557,0.30557 -0.29416,0.31977 0.44859,0.55908 0.28689,0.0924 0.59788,0.25997 0.69112,0.37231 0.29386,0.35408 -0.25487,0.42017 -1.10091,0.13259 -0.51278,-0.1743 -0.80496,-0.21303 -0.86864,-0.11513 -0.0528,0.0811 -0.19189,0.18147 -0.30915,0.22296 -0.26632,0.0942 0.37499,0.36492 1.25601,0.53015 0.79327,0.14877 1.00677,0.3519 0.59916,0.57005 -0.169,0.0905 -0.44769,0.1484 -0.61931,0.12879 -0.37699,-0.0431 -0.95161,0.1343 -0.95161,0.29379 0,0.0633 0.10172,0.19956 0.22604,0.30274 0.12433,0.10317 0.51921,0.60667 0.87751,1.11889 0.35831,0.51222 0.77746,1.03446 0.93144,1.16053 0.39881,0.32654 0.17598,0.6025 -0.40977,0.50745 -0.30956,-0.0502 -0.52721,-0.008 -0.63608,0.12306 -0.11431,0.13772 -0.3789,0.18169 -0.85521,0.14211 l -0.6897,-0.0573 0.36428,0.80689 c 0.44753,0.99131 0.47939,1.23921 0.15597,1.21354 -0.39353,-0.0313 -0.31236,0.70197 0.13865,1.25246 0.21305,0.26006 0.91348,1.06088 1.5565,1.77963 0.64302,0.71874 1.29956,1.56247 1.45898,1.87497 0.15942,0.31249 0.49831,0.72405 0.75309,0.91458 0.25477,0.19053 2.25404,1.24608 4.44283,2.34565 6.35052,3.19031 9.63409,5.16826 13.82347,8.32696 3.5653,2.68817 5.4037,4.50198 6.81914,6.72797 0.36037,0.56675 0.73218,1.03044 0.82624,1.03044 0.18703,0 0.91484,-0.28807 1.91129,-0.75649 0.52155,-0.24518 0.915,-0.30148 2.13193,-0.30507 1.47634,-0.004 1.50164,8.7e-4 2.3579,0.52505 1.92704,1.17876 4.01767,4.08643 4.03324,5.60948 0.003,0.24959 0.1277,0.66531 0.2781,0.92384 0.38435,0.66066 0.53882,1.67056 0.73085,4.7784 0.12601,2.03935 0.12743,3.10339 0.006,4.31578 -0.13536,1.34896 -0.12452,1.86188 0.0671,3.17252 0.16189,1.10778 0.24817,3.03391 0.29605,6.60898 l 0.0676,5.04557 0.64983,1.6576 c 0.39646,1.01129 0.61231,1.75541 0.55358,1.90844 -0.15326,0.39939 -0.42409,0.0233 -1.08388,-1.50518 -0.56152,-1.30082 -0.57947,-1.32422 -0.49046,-0.63958 0.41555,3.19626 0.43423,3.27612 0.97439,4.16531 0.29192,0.48057 0.59099,0.91097 0.66459,0.95646 0.21501,0.13288 0.15385,0.63444 -0.0774,0.63444 -0.11615,0 -0.38797,-0.26828 -0.60405,-0.59618 -0.38977,-0.59149 -0.39323,-0.59313 -0.43833,-0.2082 -0.068,0.58033 0.47919,2.11543 1.3418,3.76448 0.74926,1.43233 0.83916,1.8044 0.39481,1.63389 -0.1899,-0.0729 -0.18686,-0.0116 0.0233,0.46812 0.34892,0.79663 0.77282,2.32798 0.77282,2.79188 0,0.223 -0.0939,0.4344 -0.21319,0.48019 -0.14124,0.0542 -0.21425,0.28054 -0.21632,0.67066 -0.002,0.32386 -0.13131,0.87138 -0.28798,1.21671 -0.26829,0.59138 -0.56923,1.78146 -0.77568,3.06747 -0.10867,0.67689 -0.42222,1.20809 -0.7131,1.20809 -0.11545,0 -0.20992,-0.118 -0.20992,-0.26223 0,-0.25866 -0.41088,-0.73267 -0.63509,-0.73267 -0.0634,0 -0.19214,-0.10512 -0.28609,-0.23361 -0.14387,-0.19675 -0.19751,-0.098 -0.33992,0.62588 -0.16805,0.85421 -0.44249,1.27697 -0.7183,1.1065 -0.0793,-0.049 -0.18382,0.0688 -0.23224,0.26174 -0.10473,0.41725 -0.46521,0.59826 -0.58253,0.29251 -0.0456,-0.11892 -0.0432,-0.46529 0.005,-0.76968 0.0487,-0.3044 0.0261,-0.71767 -0.0502,-0.91839 -0.1252,-0.32931 -0.21328,-0.36495 -0.90194,-0.36495 -0.57966,0 -0.82434,0.0676 -1.01742,0.2809 -0.13982,0.1545 -0.303,0.25076 -0.36263,0.21391 -0.2267,-0.1401 -0.72887,-1.27548 -0.90301,-2.04165 l -0.18145,-0.79828 -0.0903,0.76122 c -0.0967,0.81473 -0.29637,1.18237 -0.58265,1.07251 -0.0976,-0.0374 -0.25591,0.10399 -0.35174,0.31433 -0.22486,0.4935 -0.44879,0.28975 -0.59589,-0.54217 -0.0594,-0.33604 -0.33836,-1.17144 -0.61985,-1.85643 -0.2815,-0.68499 -0.70748,-1.96415 -0.94663,-2.84257 -0.23914,-0.87842 -0.46621,-1.69274 -0.5046,-1.8096 -0.0428,-0.13038 -0.27406,0.17165 -0.5985,0.78171 -0.68211,1.28259 -1.46469,2.45881 -1.69739,2.55119 -0.39506,0.15684 -0.30701,-0.35497 0.19648,-1.14205 0.29071,-0.45446 0.81391,-1.42863 1.16264,-2.16483 l 0.63408,-1.33855 -0.18423,-1.54914 c -0.1467,-1.23357 -0.1493,-1.8114 -0.0128,-2.83664 l 0.17142,-1.28751 -0.62439,-1.73067 c -0.86104,-2.38655 -1.36768,-5.1862 -1.36776,-7.55795 -8e-5,-2.60425 0.76944,-6.49989 1.77802,-9.00114 0.28662,-0.71082 0.49044,-1.46288 0.49044,-1.80964 0,-0.94049 0.40355,-3.00638 0.84464,-4.32398 0.2228,-0.66552 0.35685,-1.24201 0.2979,-1.28109 -0.059,-0.0391 -0.15284,-0.7045 -0.20865,-1.4787 -0.12117,-1.68079 -0.46214,-2.67946 -1.19792,-3.50858 -0.59076,-0.66569 -0.79289,-0.65581 -0.91733,0.0448 -0.33181,1.86839 -0.87495,4.08829 -1.15112,4.70484 -0.80427,1.79559 -2.73732,4.11406 -4.28358,5.13767 -1.34362,0.88947 -1.91747,1.54879 -2.9781,3.42163 -0.85471,1.50923 -0.89331,1.72522 -0.63377,3.54601 0.2534,1.77778 0.23177,1.72902 4.53919,10.22683 0.44169,0.87136 0.49901,1.10712 0.48382,1.9898 -0.0307,1.78338 -0.24873,2.44422 -1.27041,3.85087 -2.61393,3.59884 -3.28175,4.74521 -4.75339,8.15969 -0.78472,1.82071 -1.54444,3.47822 -1.68828,3.68338 -0.14382,0.20516 -0.33618,0.60345 -0.42748,0.88509 -0.26115,0.8057 -0.92652,1.30668 -2.14672,1.61634 -0.57149,0.14503 -0.64511,0.21033 -0.68425,0.60695 -0.0242,0.24443 0.0559,0.63719 0.17766,0.8728 0.28279,0.54685 0.28708,1.2397 0.009,1.34666 -0.14703,0.0565 -0.2132,0.28604 -0.2132,0.7399 0,0.76838 -0.29774,1.47618 -0.73614,1.74996 -1.10127,0.68777 -3.48053,1.13274 -4.59368,0.85914 z m 23.73485,-13.31387 c -0.0512,-0.48857 -0.14734,-0.8883 -0.21366,-0.8883 -0.0663,0 -0.16535,0.35821 -0.22004,0.79603 -0.0748,0.59844 -0.0332,1.01296 0.16743,1.67001 l 0.26689,0.87399 0.0462,-0.78171 c 0.0254,-0.42994 0.004,-1.18145 -0.0468,-1.67002 z m -0.84109,-3.23342 c -0.0498,-0.78171 -0.13654,-1.83701 -0.19288,-2.34512 l -0.10244,-0.92384 -0.27012,1.371 c -0.28014,1.42188 -0.24533,1.9912 0.22904,3.74563 l 0.15372,0.56851 0.13656,-0.49745 c 0.0757,-0.2759 0.0963,-1.13043 0.0461,-1.91873 z m 1.36963,0.42345 c -0.12978,-0.93644 -0.25951,-1.54821 -0.28829,-1.3595 -0.0508,0.33346 0.19555,2.3792 0.3494,2.90103 0.1813,0.61484 0.15867,0.0443 -0.0611,-1.54153 z m 8.40416,-1.70874 c -0.0463,-0.12063 -0.11465,-0.18884 -0.1519,-0.15158 -0.0373,0.0373 -0.0255,0.13595 0.026,0.21932 0.14015,0.22676 0.22206,0.18271 0.12595,-0.0678 z m -10.74656,-3.93417 c -0.0301,-0.3343 -0.055,-0.0962 -0.0555,0.52921 -5.6e-4,0.62537 0.0241,0.89888 0.0545,0.60781 0.0305,-0.29107 0.0309,-0.80273 8.7e-4,-1.13702 z m -0.30563,-3.85156 c -0.0532,-0.70568 -0.13484,-1.34451 -0.18127,-1.41964 -0.12696,-0.20542 -0.60547,0.49134 -0.6091,0.8869 -0.002,0.18988 0.13767,0.78247 0.30977,1.31685 0.41554,1.29021 0.61289,0.96824 0.4806,-0.78411 z m -0.58685,-2.86778 c -0.003,-0.39086 -0.0628,-1.19033 -0.13167,-1.77661 -0.11741,-1.00016 -0.13291,-1.03526 -0.25116,-0.56851 -0.0693,0.2736 -0.22182,0.5713 -0.3389,0.66156 -0.18196,0.1403 -0.18998,0.33622 -0.0552,1.35022 0.0867,0.65236 0.19258,1.3036 0.23531,1.44719 0.14916,0.50116 0.54891,-0.32093 0.54164,-1.11385 z m 9.38802,-6.69391 c -0.0572,-1.90595 -0.15075,-3.43643 -0.20794,-3.40109 -0.16625,0.10275 -0.48332,4.24767 -0.37702,4.92839 0.147,0.94133 0.55778,2.33145 0.6273,2.12289 0.0339,-0.10166 0.0148,-1.74424 -0.0423,-3.65019 z m -9.44665,-0.34145 c 0.28163,-1.55034 0.61266,-4.68756 0.50588,-4.79434 -0.1081,-0.1081 -0.9489,3.2421 -1.14973,4.58114 -0.11724,0.78171 -0.20774,2.02889 -0.20111,2.77151 l 0.0121,1.35022 0.26799,-1.13702 c 0.1474,-0.62537 0.40161,-1.87255 0.56491,-2.77151 z m -32.00732,-51.87692 c -0.17338,-0.23451 -0.3388,-0.42639 -0.3676,-0.42639 -0.0288,0 0.061,0.19188 0.19949,0.42639 0.13854,0.23451 0.30396,0.42638 0.36762,0.42638 0.0637,0 -0.0262,-0.19187 -0.19951,-0.42638 z m 1.87015,-5.5177 c 0,-0.45867 -0.52849,-1.48861 -1.00019,-1.94922 -0.30977,-0.30249 -0.56323,-0.50001 -0.56323,-0.43896 0,0.0611 0.22386,0.57643 0.49745,1.14526 0.2736,0.56883 0.49745,1.10748 0.49745,1.19699 0,0.0895 0.12792,0.16274 0.28426,0.16274 0.15634,0 0.28426,-0.0525 0.28426,-0.11681 z m -1.35662,-0.3451 c -0.1425,-0.47166 -0.32538,-0.6176 -0.43054,-0.34356 -0.12543,0.3269 0.0267,0.66334 0.29993,0.66334 0.16952,0 0.20269,-0.0812 0.13061,-0.31978 z m -1.05956,-0.73825 c 0,-0.25749 -0.70002,-1.06979 -0.70615,-0.81941 -0.004,0.16412 0.55178,1.02467 0.66181,1.02467 0.0244,0 0.0443,-0.0924 0.0443,-0.20526 z m 0.99489,-6.75065 c 0,-0.16768 -0.27719,-0.34707 -0.37901,-0.24526 -0.1018,0.1018 0.0776,0.37901 0.24527,0.37901 0.0736,0 0.13374,-0.0602 0.13374,-0.13375 z m -1.56518,-0.50772 c -0.217,-0.23098 -0.38433,-0.30844 -0.47356,-0.21921 -0.1928,0.1928 0.15161,0.57642 0.51751,0.57642 0.28243,0 0.28104,-0.0113 -0.044,-0.35721 z m 1.04632,-1.70821 c -0.0486,-0.12671 -0.26943,-0.20864 -0.56231,-0.20864 -0.60474,0 -0.61107,0.10168 -0.0217,0.34948 0.51441,0.21629 0.70358,0.17068 0.58404,-0.14084 z m -1.14127,-1.21365 c -0.24863,-0.15925 -0.6566,-0.60831 -0.90659,-0.9979 -0.25,-0.38958 -0.48413,-0.67875 -0.5203,-0.64258 -0.27866,0.27866 1.07441,1.93644 1.57724,1.93246 0.25929,-0.002 0.23815,-0.0431 -0.15035,-0.29198 z m 0.0416,-1.19355 c -0.12965,-0.19786 -0.30198,-0.35975 -0.38296,-0.35975 -0.16082,0 -0.0645,0.21628 0.26929,0.60491 0.30872,0.35942 0.39205,0.17971 0.11367,-0.24516 z m -1.08846,-3.2145 c -0.0872,-0.16303 -0.19334,-0.26173 -0.23575,-0.21932 -0.11715,0.11715 0.0705,0.51575 0.24281,0.51575 0.10511,0 0.10295,-0.0909 -0.007,-0.29643 z m 2.17398,-0.18567 c 0.30862,-0.23428 0.33708,-1.30537 0.0527,-1.98585 -0.39823,-0.95311 -1.65208,-1.47147 -1.87331,-0.77446 -0.0781,0.24615 0.021,0.42246 0.47672,0.84752 0.76046,0.70934 1.13708,1.34381 0.92411,1.55679 -0.11803,0.11803 -0.22655,0.0814 -0.41673,-0.14073 -0.14657,-0.17118 -0.42602,-0.30033 -0.64985,-0.30033 l -0.39272,0 0.5309,0.49361 c 0.5642,0.52457 0.94417,0.6101 1.34813,0.30345 z m -1.95427,-1.64982 c -0.0483,-0.0782 -0.18378,-0.14213 -0.30103,-0.14213 -0.11726,0 -0.17367,0.0639 -0.12536,0.14213 0.0483,0.0782 0.18379,0.14213 0.30104,0.14213 0.11726,0 0.17367,-0.0639 0.12535,-0.14213 z m -1.10445,-0.51226 c -0.0473,-0.0473 -0.16982,-0.0523 -0.27242,-0.0112 -0.11338,0.0453 -0.0797,0.079 0.0859,0.0859 0.14982,0.006 0.23377,-0.0274 0.18654,-0.0746 z m 0.11791,-1.25984 c 0.25891,-0.19581 0.24378,-0.20894 -0.24546,-0.21319 -0.62233,-0.005 -0.99912,0.11924 -0.89072,0.29463 0.1234,0.19968 0.83164,0.14891 1.13618,-0.0814 z m -1.5392,-0.58783 c -0.0473,-0.0473 -0.16982,-0.0523 -0.27241,-0.0112 -0.11339,0.0453 -0.0797,0.079 0.0858,0.0859 0.14983,0.006 0.23377,-0.0274 0.18654,-0.0746 z m -13.1084,-13.41634 c -0.0483,-0.0782 -0.1518,-0.14213 -0.22997,-0.14213 -0.0782,0 -0.1026,0.0639 -0.0543,0.14213 0.0483,0.0782 0.1518,0.14213 0.22997,0.14213 0.0782,0 0.10261,-0.0639 0.0543,-0.14213 z m -2.34512,-1.3218 c 0,-0.2048 -0.27769,-0.52588 -0.45481,-0.52588 -0.0626,0 -0.1137,0.1599 -0.1137,0.35533 0,0.26057 0.0758,0.35532 0.28425,0.35532 0.15635,0 0.28426,-0.0831 0.28426,-0.18477 z m 0.92383,0.0427 c 0.0483,-0.0782 0.0202,-0.14213 -0.0626,-0.14213 -0.0828,0 -0.15052,0.0639 -0.15052,0.14213 0,0.0782 0.0282,0.14213 0.0627,0.14213 0.0345,0 0.1022,-0.0639 0.15051,-0.14213 z"
       id="path4825"
       inkscape:connector-curvature="0" />
  </g>
  <text
     xml:space="preserve"
     style="font-style:normal;font-weight:normal;font-size:16.25px;line-height:125%;font-family:sans-serif;letter-spacing:0px;word-spacing:0px;fill:#2f2930;fill-opacity:1;stroke:none;stroke-width:1px;stroke-linecap:butt;stroke-linejoin:miter;stroke-opacity:1"
     x="280.80255"
     y="40.486275"
     id="text4235"
     sodipodi:linespacing="125%"
     inkscape:export-xdpi="300"
     inkscape:export-ydpi="300"><tspan
       sodipodi:role="line"
       id="tspan4237"
       x="280.80255"
       y="40.486275"
       style="font-style:normal;font-variant:normal;font-weight:bold;font-stretch:normal;font-size:30px;font-family:'Segoe Script';-inkscape-font-specification:'Segoe Script Bold';fill:#2f2930;fill-opacity:1">Pink Fluffy Defence</tspan></text>
  <g
     id="g3358"
     inkscape:export-xdpi="300"
     inkscape:export-ydpi="300">
    <rect
       style="fill:none"
       y="78.090561"
       x="41.696697"
       height="140"
       width="140"
       id="rect3353" />
    <path
       inkscape:export-ydpi="300"
       inkscape:export-xdpi="300"
       sodipodi:nodetypes="sccccsssscssscccccccs"
       inkscape:connector-curvature="0"
       id="path3466"
       d="m 95.728778,210.59978 c 1.851423,-3.4682 1.831802,-9.15443 1.434032,-10.86861 -0.849242,-3.65871 1.011937,-17.58373 2.90599,-21.74352 0.74297,-1.63197 1.03417,-5.36753 0.64751,-8.30117 -0.38701,-2.93372 0.0795,-9.49228 1.03653,-14.57452 0.95696,-5.08225 1.71301,-12.165 1.68001,-15.7394 -0.0329,-3.5745 0.30474,-10.12252 0.75049,-14.55122 0.44582,-4.42876 1.27571,-16.45953 1.84419,-26.734978 0.56857,-10.275502 1.31481,-18.976934 1.6585,-19.336587 0.34412,-0.36007 1.32078,-0.362731 2.17121,-0.0069 0.99035,0.41458 1.8082,4.428193 2.27467,11.1655 0.40061,5.785127 1.28037,15.080305 1.95493,20.655965 0.67462,5.57568 1.45853,13.41066 1.74206,17.41112 0.28355,4.00043 1.16573,10.79372 1.96048,15.09601 0.79468,4.30235 1.23802,9.76084 0.9854,12.12991 -0.25307,2.36909 0.25597,6.30969 1.13056,8.75689 2.43967,6.8268 3.90557,17.25198 2.98224,21.21041 -0.53336,2.28797 -0.13333,4.71624 1.11989,6.79356 2.83427,4.69807 4.48328,15.34315 4.00655,21.01105 -0.56175,6.75807 -30.614906,5.76088 -32.488048,0.24886 -0.45088,-0.43466 -0.153367,-1.95516 0.202806,-2.62237 z"
       style="fill:#ff50a2;fill-opacity:1" />
  </g>
  <text
     inkscape:export-ydpi="300"
     inkscape:export-xdpi="300"
     sodipodi:linespacing="125%"
     id="text3351"
     y="80.486267"
     x="280.80255"
     style="font-style:normal;font-weight:normal;font-size:16.25px;line-height:125%;font-family:sans-serif;letter-spacing:0px;word-spacing:0px;fill:#2f2930;fill-opacity:1;stroke:none;stroke-width:1px;stroke-linecap:butt;stroke-linejoin:miter;stroke-opacity:1"
     xml:space="preserve"><tspan
       style="font-style:normal;font-variant:normal;font-weight:bold;font-stretch:normal;font-size:30px;font-family:Purisa;-inkscape-font-specification:'Purisa Bold';fill:#2f2930;fill-opacity:1"
       y="80.486267"
       x="280.80255"
       id="tspan3353"
       sodipodi:role="line">Pink Fluffy Defence</tspan></text>
  <g
     id="g3499"
     inkscape:export-xdpi="90"
     inkscape:export-ydpi="90">
    <rect
       style="fill:none"
       id="rect3374"
       width="32"
       height="32"
       x="321.4285"
       y="291.20248" />
    <g
       id="g3493">
      <circle
         r="12.28598"
         cy="307.20248"
         cx="337.4285"
         id="circle3378"
         style="fill:#0000ff" />
      <g
         id="g3489">
        <rect
           style="fill:#ff0000"
           id="rect3380"
           width="2.8284273"
           height="16.263456"
           x="336.01428"
           y="292.0864" />
        <path
           inkscape:transform-center-x="2.4801825e-05"
           inkscape:transform-center-y="-2.2541022"
           d="m 345.23692,311.96477 -15.61685,0 7.80843,-13.52459 z"
           inkscape:randomized="0"
           inkscape:rounded="0"
           inkscape:flatsided="true"
           sodipodi:arg2="1.5707963"
           sodipodi:arg1="0.52359878"
           sodipodi:r2="4.5081968"
           sodipodi:r1="9.0163946"
           sodipodi:cy="307.45657"
           sodipodi:cx="337.4285"
           sodipodi:sides="3"
           id="path3402"
           style="fill:#ffff00"
           sodipodi:type="star" />
      </g>
    </g>
  </g>
  <g
     id="g4215"
     inkscape:export-xdpi="180"
     inkscape:export-ydpi="180">
    <rect
       y="291.20248"
       x="281.4285"
       height="32"
       width="32"
       id="rect3356"
       style="fill:none" />
    <g
       id="g4191">
      <rect
         style="fill:#ff0000"
         id="rect3360"
         width="6.0104079"
         height="16.263456"
         x="294.42328"
         y="292.0864" />
      <circle
         style="fill:#ffff00"
         id="path3406"
         cx="297.4285"
         cy="307.20248"
         r="3.1916261" />
    </g>
  </g>
  <g
     id="g3519"
     inkscape:export-xdpi="90"
     inkscape:export-ydpi="90">
    <rect
       y="291.20248"
       x="361.4285"
       height="32"
       width="32"
       id="rect3384"
       style="fill:none" />
    <g
       id="g3513">
      <circle
         style="fill:#0000ff"
         id="circle3388"
         cx="377.4285"
         cy="307.20248"
         r="12.28598" />
      <g
         id="g3466">
        <rect
           y="292.0864"
           x="372.83228"
           height="16.263456"
           width="9.1923885"
           id="rect3390"
           style="fill:#ff0000" />
        <path
           d="m 382.79468,316.49699 -10.73237,0 -5.36618,-9.29451 5.36618,-9.2945 10.73237,0 5.36618,9.2945 z"
           inkscape:randomized="0"
           inkscape:rounded="0"
           inkscape:flatsided="true"
           sodipodi:arg2="1.5707963"
           sodipodi:arg1="1.0471976"
           sodipodi:r2="9.2945032"
           sodipodi:r1="10.732367"
           sodipodi:cy="307.20248"
           sodipodi:cx="377.4285"
           sodipodi:sides="6"
           id="path3458"
           style="fill:#ffff00"
           sodipodi:type="star" />
      </g>
    </g>
  </g>
  <rect
     y="251.20248"
     x="281.4285"
     height="32"
     width="32"
     id="rect3377"
     style="fill:#008000"
     inkscape:export-xdpi="90"
     inkscape:export-ydpi="90" />
  <rect
     inkscape:export-ydpi="90"
     inkscape:export-xdpi="90"
     style="fill:#008000"
     id="rect3399"
     width="32"
     height="32"
     x="321.4285"
     y="251.20248" />
  <rect
     y="251.20248"
     x="361.4285"
     height="32"
     width="32"
     id="rect3401"
     style="fill:#00ffff"
     inkscape:export-xdpi="90"
     inkscape:export-ydpi="90" />
  <path
     inkscape:connector-curvature="0"
     d="m 243.93823,251.47451 24.15617,0 c 2.17268,0 3.92192,1.56448 3.92192,3.50788 l 0,24.98452 c 0,1.94334 -1.74917,3.50788 -3.92192,3.50788 l -24.15617,0 c -2.17268,0 -3.92192,-1.56454 -3.92192,-3.50788 l 0,-24.98452 c 0,-1.9434 1.74917,-3.50788 3.92192,-3.50788 z"
     id="path3380"
     style="fill:#ff50a2;fill-opacity:0.50196081;stroke:none;stroke-width:2.7019999;stroke-linecap:round;stroke-linejoin:round;stroke-miterlimit:13.65400028;opacity:1"
     inkscape:export-xdpi="180"
     inkscape:export-ydpi="180" />
  <g
     id="g4177"
     transform="translate(-289.67915,-32.113907)"
     inkscape:export-xdpi="300"
     inkscape:export-ydpi="300">
    <g
       id="g4204">
      <path
         style="fill:#2f2930;stroke:none;stroke-width:2.7019999;stroke-linecap:round;stroke-linejoin:round;stroke-miterlimit:13.65400028;opacity:1"
         id="path4179"
         d="m 597.05636,223.84825 34.673,0 c 3.1186,0 5.6294,2.2456 5.6294,5.0351 l 0,35.862 c 0,2.7894 -2.5107,5.0351 -5.6294,5.0351 l -34.673,0 c -3.1186,0 -5.6294,-2.2457 -5.6294,-5.0351 l 0,-35.862 c 0,-2.7895 2.5107,-5.0351 5.6294,-5.0351 z"
         inkscape:connector-curvature="0" />
      <g
         transform="translate(55.912656,76.586563)"
         id="g4200">
        <rect
           style="opacity:1;fill:#ff50a2;fill-opacity:1"
           id="rect4181"
           width="9.8994951"
           height="36.062447"
           x="543.53046"
           y="152.19656" />
        <rect
           y="152.19656"
           x="563.53046"
           height="36.062447"
           width="9.8994951"
           id="rect4198"
           style="opacity:1;fill:#ff50a2;fill-opacity:1" />
      </g>
    </g>
  </g>
  <g
     inkscape:export-ydpi="300"
     inkscape:export-xdpi="300"
     transform="translate(-289.67915,-92.113907)"
     id="g4210">
    <g
       id="g4212">
      <path
         inkscape:connector-curvature="0"
         d="m 597.05636,223.84825 34.673,0 c 3.1186,0 5.6294,2.2456 5.6294,5.0351 l 0,35.862 c 0,2.7894 -2.5107,5.0351 -5.6294,5.0351 l -34.673,0 c -3.1186,0 -5.6294,-2.2457 -5.6294,-5.0351 l 0,-35.862 c 0,-2.7895 2.5107,-5.0351 5.6294,-5.0351 z"
         id="path4214"
         style="opacity:1;fill:#ff50a2;stroke:none;stroke-width:2.7019999;stroke-linecap:round;stroke-linejoin:round;stroke-miterlimit:13.65400028;fill-opacity:1" />
      <g
         id="g4216"
         transform="translate(55.912656,76.586563)">
        <rect
           y="152.19656"
           x="543.53046"
           height="36.062447"
           width="9.8994951"
           id="rect4218"
           style="opacity:1;fill:#2f2930;fill-opacity:1" />
        <rect
           style="opacity:1;fill:#2f2930;fill-opacity:1"
           id="rect4220"
           width="9.8994951"
           height="36.062447"
           x="563.53046"
           y="152.19656" />
      </g>
    </g>
  </g>
  <path
     inkscape:connector-curvature="0"
     d="m 427.3772,127.29259 34.673,0 c 3.1186,0 5.6294,2.2456 5.6294,5.0351 l 0,35.862 c 0,2.7894 -2.5107,5.0351 -5.6294,5.0351 l -34.673,0 c -3.1186,0 -5.6294,-2.2457 -5.6294,-5.0351 l 0,-35.862 c 0,-2.7895 2.5107,-5.0351 5.6294,-5.0351 z"
     id="path4191"
     style="fill:#ff50a2;fill-opacity:1;stroke:none;stroke-width:2.7019999;stroke-linecap:round;stroke-linejoin:round;stroke-miterlimit:13.65400028;opacity:0.3"
     inkscape:export-xdpi="250.81"
     inkscape:export-ydpi="250.81" />
  <path
     style="fill:#2f2930;stroke:none;stroke-width:2.7019999;stroke-linecap:round;stroke-linejoin:round;stroke-miterlimit:13.65400028;opacity:0.3"
     id="path4195"
     d="m 427.37721,191.73434 34.673,0 c 3.1186,0 5.6294,2.2456 5.6294,5.0351 l 0,35.862 c 0,2.7894 -2.5107,5.0351 -5.6294,5.0351 l -34.673,0 c -3.1186,0 -5.6294,-2.2457 -5.6294,-5.0351 l 0,-35.862 c 0,-2.7895 2.5107,-5.0351 5.6294,-5.0351 z"
     inkscape:connector-curvature="0"
     inkscape:export-xdpi="250.81"
     inkscape:export-ydpi="250.81" />
  <g
     id="g4318"
     inkscape:export-xdpi="128"
     inkscape:export-ydpi="128">
    <g
       inkscape:export-ydpi="300"
       inkscape:export-xdpi="300"
       transform="translate(-111.67915,-32.613907)"
       id="g4314">
      <path
         sodipodi:nodetypes="sssssssss"
         style="fill:#2f2930;stroke:none;stroke-width:2.7019999;stroke-linecap:round;stroke-linejoin:round;stroke-miterlimit:13.65400028"
         id="path4316"
         d="m 597.05636,223.84825 140.673,0 c 3.1186,0 5.6294,2.2456 5.6294,5.0351 l 0,35.862 c 0,2.7894 -2.5107,5.0351 -5.6294,5.0351 l -140.673,0 c -3.1186,0 -5.6294,-2.2457 -5.6294,-5.0351 l 0,-35.862 c 0,-2.7895 2.5107,-5.0351 5.6294,-5.0351 z"
         inkscape:connector-curvature="0" />
    </g>
    <text
       xml:space="preserve"
       style="font-style:normal;font-weight:normal;font-size:16.25px;line-height:125%;font-family:sans-serif;letter-spacing:0px;word-spacing:0px;fill:#2f2930;fill-opacity:1;stroke:none;stroke-width:1px;stroke-linecap:butt;stroke-linejoin:miter;stroke-opacity:1"
       x="482.74573"
       y="225.22545"
       id="text4197"
       sodipodi:linespacing="125%"
       inkscape:export-xdpi="128.36"
       inkscape:export-ydpi="128.36"><tspan
         sodipodi:role="line"
         x="482.74573"
         y="225.22545"
         style="font-style:normal;font-variant:normal;font-weight:bold;font-stretch:normal;font-size:30px;font-family:Purisa;-inkscape-font-specification:'Purisa Bold';fill:#ffffff;fill-opacity:1"
         id="tspan4201">Upgrade</tspan></text>
  </g>
  <g
     id="g4214"
     transform="translate(-181.3156,13.392615)"
     inkscape:export-xdpi="250"
     inkscape:export-ydpi="250">
    <path
       id="circle4209-3"
       d="m 562.50391,314.53711 a 24.395184,24.395184 0 0 0 -24.39649,24.39453 24.395184,24.395184 0 0 0 24.39649,24.39648 24.395184,24.395184 0 0 0 24.39453,-24.39648 24.395184,24.395184 0 0 0 -24.39453,-24.39453 z m 0,5.30273 a 19.091883,19.091883 0 0 1 19.09179,19.0918 19.091883,19.091883 0 0 1 -19.09179,19.0918 19.091883,19.091883 0 0 1 -19.0918,-19.0918 19.091883,19.091883 0 0 1 19.0918,-19.0918 z"
       style="opacity:1;fill:#2f2930;fill-opacity:1"
       inkscape:connector-curvature="0" />
    <rect
       transform="matrix(0.70710678,0.70710678,-0.70710678,0.70710678,0,0)"
       y="-180.89229"
       x="635.02472"
       height="45.608391"
       width="4.7729707"
       id="rect4212"
       style="opacity:1;fill:#2f2930;fill-opacity:1" />
  </g>
  <g
     transform="translate(-121.3156,13.392615)"
     id="g4218"
     inkscape:export-xdpi="250"
     inkscape:export-ydpi="250">
    <path
       inkscape:connector-curvature="0"
       style="opacity:1;fill:#ff50a2;fill-opacity:1"
       d="m 562.50391,314.53711 a 24.395184,24.395184 0 0 0 -24.39649,24.39453 24.395184,24.395184 0 0 0 24.39649,24.39648 24.395184,24.395184 0 0 0 24.39453,-24.39648 24.395184,24.395184 0 0 0 -24.39453,-24.39453 z m 0,5.30273 a 19.091883,19.091883 0 0 1 19.09179,19.0918 19.091883,19.091883 0 0 1 -19.09179,19.0918 19.091883,19.091883 0 0 1 -19.0918,-19.0918 19.091883,19.091883 0 0 1 19.0918,-19.0918 z"
       id="path4220" />
    <rect
       style="opacity:1;fill:#ff50a2;fill-opacity:1"
       id="rect4222"
       width="4.7729707"
       height="45.608391"
       x="635.02472"
       y="-180.89229"
       transform="matrix(0.70710678,0.70710678,-0.70710678,0.70710678,0,0)" />
  </g>
  <g
     id="g4290"
     transform="translate(-124.57211,73.771338)"
     inkscape:export-xdpi="250"
     inkscape:export-ydpi="250">
    <path
       sodipodi:nodetypes="cccccccccc"
       inkscape:connector-curvature="0"
       id="circle4209"
       d="m 484.63483,336.70066 c 5e-5,-10.54409 8.5477,-19.09175 19.09179,-19.0918 5.71074,0.005 11.11944,2.56592 14.74219,6.98047 l -2.28565,1.90625 8.96436,1.03125 -0.004,-8.5 -2.56689,2.1875 c -6.53992,-7.96009 -17.37529,-10.95385 -27.07422,-7.48047 -9.69864,3.47346 -16.16996,12.66493 -16.16992,22.9668 z"
       style="opacity:1;fill:#2f2930;fill-opacity:1" />
    <path
       style="opacity:1;fill:#2f2930;fill-opacity:1"
       d="m 521.84518,336.30423 c -5e-5,10.54409 -8.5477,19.09175 -19.09179,19.0918 -5.71074,-0.005 -11.11944,-2.56592 -14.74219,-6.98047 l 2.28565,-1.90625 -8.96436,-1.03125 0.004,8.5 2.56689,-2.1875 c 6.53992,7.96009 17.37529,10.95385 27.07422,7.48047 9.69864,-3.47346 16.16996,-12.66493 16.16992,-22.9668 z"
       id="path4282"
       inkscape:connector-curvature="0"
       sodipodi:nodetypes="cccccccccc" />
  </g>
  <g
     transform="translate(-59.51829,75.185552)"
     id="g4294"
     inkscape:export-xdpi="250"
     inkscape:export-ydpi="250">
    <path
       style="opacity:1;fill:#ff50a2;fill-opacity:1"
       d="m 484.63483,336.70066 c 5e-5,-10.54409 8.5477,-19.09175 19.09179,-19.0918 5.71074,0.005 11.11944,2.56592 14.74219,6.98047 l -2.28565,1.90625 8.96436,1.03125 -0.004,-8.5 -2.56689,2.1875 c -6.53992,-7.96009 -17.37529,-10.95385 -27.07422,-7.48047 -9.69864,3.47346 -16.16996,12.66493 -16.16992,22.9668 z"
       id="path4296"
       inkscape:connector-curvature="0"
       sodipodi:nodetypes="cccccccccc" />
    <path
       sodipodi:nodetypes="cccccccccc"
       inkscape:connector-curvature="0"
       id="path4298"
       d="m 521.84518,336.30423 c -5e-5,10.54409 -8.5477,19.09175 -19.09179,19.0918 -5.71074,-0.005 -11.11944,-2.56592 -14.74219,-6.98047 l 2.28565,-1.90625 -8.96436,-1.03125 0.004,8.5 2.56689,-2.1875 c 6.53992,7.96009 17.37529,10.95385 27.07422,7.48047 9.69864,-3.47346 16.16996,-12.66493 16.16992,-22.9668 z"
       style="opacity:1;fill:#ff50a2;fill-opacity:1" />
  </g>
  <g
     id="g4324"
     transform="translate(0,-100)">
    <g
       id="g4326"
       transform="translate(-111.67915,-32.613907)"
       inkscape:export-xdpi="128"
       inkscape:export-ydpi="128">
      <path
         inkscape:connector-curvature="0"
         d="m 597.05636,223.84825 140.673,0 c 3.1186,0 5.6294,2.2456 5.6294,5.0351 l 0,35.862 c 0,2.7894 -2.5107,5.0351 -5.6294,5.0351 l -140.673,0 c -3.1186,0 -5.6294,-2.2457 -5.6294,-5.0351 l 0,-35.862 c 0,-2.7895 2.5107,-5.0351 5.6294,-5.0351 z"
         id="path4328"
         style="fill:#2f2930;stroke:none;stroke-width:2.7019999;stroke-linecap:round;stroke-linejoin:round;stroke-miterlimit:13.65400028"
         sodipodi:nodetypes="sssssssss" />
    </g>
    <text
       inkscape:export-ydpi="128.36"
       inkscape:export-xdpi="128.36"
       sodipodi:linespacing="125%"
       id="text4330"
       y="225.22545"
       x="482.74573"
       style="font-style:normal;font-weight:normal;font-size:16.25px;line-height:125%;font-family:sans-serif;letter-spacing:0px;word-spacing:0px;fill:#ff50a2;fill-opacity:1;stroke:none;stroke-width:1px;stroke-linecap:butt;stroke-linejoin:miter;stroke-opacity:1"
       xml:space="preserve"><tspan
         id="tspan4332"
         style="font-style:normal;font-variant:normal;font-weight:bold;font-stretch:normal;font-size:30px;font-family:Purisa;-inkscape-font-specification:'Purisa Bold';fill:#ff50a2;fill-opacity:1"
         y="225.22545"
         x="482.74573"
         sodipodi:role="line">Upgrade</tspan></text>
  </g>
  <g
     inkscape:export-ydpi="128"
     inkscape:export-xdpi="128"
     id="g4334"
     transform="translate(0,-50)">
    <g
       id="g4336"
       transform="translate(-111.67915,-32.613907)"
       inkscape:export-xdpi="300"
       inkscape:export-ydpi="300">
      <path
         inkscape:connector-curvature="0"
         d="m 597.05636,223.84825 140.673,0 c 3.1186,0 5.6294,2.2456 5.6294,5.0351 l 0,35.862 c 0,2.7894 -2.5107,5.0351 -5.6294,5.0351 l -140.673,0 c -3.1186,0 -5.6294,-2.2457 -5.6294,-5.0351 l 0,-35.862 c 0,-2.7895 2.5107,-5.0351 5.6294,-5.0351 z"
         id="path4338"
         style="fill:#2f2930;stroke:none;stroke-width:2.7019999;stroke-linecap:round;stroke-linejoin:round;stroke-miterlimit:13.65400028"
         sodipodi:nodetypes="sssssssss" />
    </g>
    <text
       inkscape:export-ydpi="128.36"
       inkscape:export-xdpi="128.36"
       sodipodi:linespacing="125%"
       id="text4340"
       y="225.22545"
       x="482.74573"
       style="font-style:normal;font-weight:normal;font-size:16.25px;line-height:125%;font-family:sans-serif;letter-spacing:0px;word-spacing:0px;fill:#6e6e6e;fill-opacity:1;stroke:none;stroke-width:1px;stroke-linecap:butt;stroke-linejoin:miter;stroke-opacity:1;"
       xml:space="preserve"><tspan
         id="tspan4342"
         style="font-style:normal;font-variant:normal;font-weight:bold;font-stretch:normal;font-size:30px;font-family:Purisa;-inkscape-font-specification:'Purisa Bold';fill:#6e6e6e;fill-opacity:1;"
         y="225.22545"
         x="482.74573"
         sodipodi:role="line">Upgrade</tspan></text>
  </g>
  <path
     style="fill:#ff50a2;fill-opacity:1"
     d="m 292.26681,460.96779 c -0.90964,0.0987 -1.5221,-0.82635 -1.66648,-1.07175 -0.14856,-0.25261 -0.009,-1.23214 0.17827,-1.55324 0.0699,-0.11962 0.0334,-0.4698 -0.0819,-0.78677 -0.19026,-0.52274 -0.16584,-0.65183 0.28737,-1.51969 0.27241,-0.52163 0.75348,-1.36411 1.06905,-1.87219 0.39497,-0.6359 1.11964,-1.13953 1.35905,-2.16838 0.19129,-0.82204 0.34565,-1.25463 0.49579,-1.72522 1.07833,-3.37946 1.48013,-6.09467 1.25378,-8.4726 -0.26107,-2.74276 -1.65531,-6.76553 -2.50391,-7.22448 -0.20314,-0.10985 -0.82264,-0.56056 -1.3767,-1.00156 -0.55404,-0.441 -1.07343,-0.81553 -1.1542,-0.83227 -0.0808,-0.0168 -0.11937,0.25085 -0.0858,0.59469 0.22112,2.26428 0.26034,2.07007 -0.9651,4.77861 -1.57576,3.48278 -1.95763,4.54104 -2.36677,6.55893 -0.19413,0.95752 -0.56813,2.61383 -0.83107,3.6807 -0.26296,1.06687 -0.53248,2.22768 -0.59894,2.57961 -0.15079,0.79843 -0.74398,1.45317 -1.78168,1.96651 l -0.78819,0.38989 0.21432,0.52657 c 0.11786,0.2896 -0.10291,0.44041 0.0764,0.7673 0.30368,0.55336 0.24055,0.61322 -0.02,0.86921 -0.22597,0.22203 -0.51514,0.54273 -0.3899,1.11034 0.21059,0.95434 -0.45725,1.42946 -1.41964,2.03829 -1.02788,0.65031 -2.3872,0.83761 -3.34477,0.88202 -1.153,0.0535 -2.23812,-0.85524 -2.37397,-1.22846 -0.13046,-0.35846 0.058,-1.67643 0.34025,-1.99166 0.14825,-0.16556 0.0847,-0.7011 0.0847,-0.7011 -0.17766,-0.48812 -0.30616,-0.45369 0.34171,-1.33075 0.37616,-0.50924 1.99376,-1.02028 2.43336,-1.56774 0.48584,-0.60505 0.92483,-1.35083 1.11951,-1.90188 0.17612,-0.49858 0.88583,-2.16734 1.57711,-3.70834 1.82782,-4.07462 2.2617,-6.29125 1.91191,-9.76754 -0.18871,-1.87537 -0.92689,-4.33687 -1.40849,-4.69672 -0.1883,-0.1407 -0.58278,-0.52786 -0.87659,-0.86034 -1.71412,-1.93981 -4.01368,-3.94777 -6.08614,-5.31441 -2.66705,-1.75872 -4.71525,-3.27363 -5.4148,-4.00492 -0.29458,-0.30797 -0.91749,-1.08435 -1.38421,-1.72532 l -0.84859,-1.16539 -1.44033,0.52378 c -1.28009,0.46546 -1.61839,0.53009 -3.04062,0.58045 -2.91647,0.10326 -5.26526,0.28731 -7.97287,0.62478 -3.50517,0.43688 -5.62564,0.5731 -7.05429,0.45317 -1.33384,-0.11196 -3.17549,-0.58584 -3.64753,-0.93853 -0.58989,-0.44075 -7.38852,-3.14659 -10.58152,-4.21142 -0.67092,-0.22374 -1.64123,-0.58749 -2.15626,-0.80833 -0.78209,-0.33535 -0.99305,-0.36704 -1.27998,-0.19227 -0.42376,0.2581 -1.91996,0.4224 -2.59267,0.28469 -0.38043,-0.0779 -1.05483,-0.60966 -2.84345,-2.24209 -1.28961,-1.17698 -2.82505,-2.50967 -3.41209,-2.96149 -3.8933,-2.99658 -10.81446,-7.46649 -12.25931,-7.91745 l -0.61613,-0.19231 0.15087,0.4145 c 0.23101,0.63472 0.93098,5.33088 0.99431,6.67096 0.031,0.65695 0.17611,1.52176 0.324,1.93151 0.2398,0.66382 0.35882,0.80351 1.1327,1.3271 0.47571,0.32183 1.21174,0.9216 1.63562,1.33283 0.72439,0.70276 0.7748,0.78773 0.8392,1.41451 0.0837,0.81498 0.2472,0.92553 0.45706,0.30912 0.24355,-0.71539 0.69539,-1.03616 1.36997,-0.97255 0.30753,0.029 0.71326,0.18271 0.90164,0.3416 0.18836,0.15889 0.56944,0.31073 0.84682,0.33741 0.94432,0.0908 1.83113,1.76538 2.10396,3.97281 0.2051,1.65956 0.14453,2.42735 -0.26466,3.35483 -0.45934,1.04116 -0.71645,1.05706 -2.50055,0.15472 -0.83745,-0.42354 -1.65008,-0.8258 -1.80585,-0.89388 -0.40975,-0.1791 -1.31281,-0.60801 -1.71276,-0.81348 -0.18956,-0.0974 -0.87811,-0.28882 -1.53012,-0.42541 -1.27987,-0.26812 -1.60144,-0.48256 -2.23106,-1.48777 -0.24689,-0.39417 -0.57658,-0.72372 -0.83216,-0.83182 -0.2328,-0.0985 -0.45374,-0.26275 -0.49098,-0.36505 -0.0372,-0.1023 -0.22034,-0.24813 -0.40689,-0.32405 -0.18655,-0.0759 -0.58273,-0.50378 -0.88041,-0.95081 l -0.54122,-0.81277 -0.2904,-2.88115 c -0.25885,-2.56816 -0.51373,-3.99348 -1.49478,-8.35878 -0.28469,-1.26675 -0.58935,-1.88645 -0.87611,-1.78207 -0.0945,0.0344 -0.60494,0.45173 -1.13427,0.9274 -0.52933,0.47567 -1.26342,1.08504 -1.63132,1.35414 -0.62059,0.45395 -0.66643,0.53196 -0.63461,1.08029 0.0433,0.74553 -0.32542,1.48547 -1.26827,2.54534 -0.40768,0.45826 -0.76726,0.95319 -0.79908,1.09982 -0.0417,0.19216 0.11125,0.49435 0.54782,1.08222 0.66289,0.89265 0.78885,1.45888 0.41694,1.87418 -0.11008,0.12286 -0.17869,0.47185 -0.15251,0.77543 0.0814,0.94397 -0.0541,1.18043 -0.81394,1.42013 -0.97119,0.30634 -3.40739,0.52301 -4.50594,0.40068 -1.12422,-0.12519 -1.95042,-0.45862 -2.57262,-1.03824 -0.87685,-0.81685 -0.84806,-0.94139 0.54438,-2.35456 0.92773,-0.94154 1.25127,-1.36557 1.27532,-1.67144 0.0223,-0.28358 0.18985,-0.52677 0.54386,-0.78935 0.33719,-0.2501 0.67654,-0.72449 0.99526,-1.39134 0.42291,-0.88482 0.46436,-1.09976 0.33023,-1.71226 -0.34702,-1.58469 -0.33198,-1.62093 1.51543,-3.64876 2.0887,-2.2927 2.98706,-3.06231 4.35414,-3.73019 0.92895,-0.45381 1.31214,-0.71814 1.60642,-1.10807 0.7181,-0.95153 2.1552,-2.05158 3.15611,-2.41588 0.72163,-0.26265 1.128,-0.52028 1.94365,-1.23223 1.23525,-1.0782 2.04957,-1.61753 2.51504,-1.66572 0.19629,-0.0204 0.67233,0.19832 1.10992,0.5098 1.25982,0.89677 3.4658,1.74027 6.30671,2.41152 2.46248,0.58183 4.77434,1.30303 5.62331,1.75423 0.42975,0.2284 0.51337,0.13662 0.6132,-0.67309 0.11228,-0.91056 0.54182,-1.87884 1.61535,-3.64127 1.92424,-3.15904 2.4039,-4.60854 2.86919,-8.67045 0.22221,-1.93991 0.16551,-2.57782 -0.44648,-5.02218 -0.29586,-1.18173 -0.56572,-2.32566 -0.59968,-2.54205 -0.0389,-0.24794 -0.11921,-0.37256 -0.21712,-0.33692 -0.0855,0.0311 -0.78831,0.68621 -1.56185,1.45578 -0.77354,0.76957 -1.58405,1.54015 -1.80114,1.7124 -0.21709,0.17224 -0.92323,0.94365 -1.56921,1.71416 -0.646,0.77053 -1.46942,1.61928 -1.82982,1.88613 -1.02251,0.75706 -1.17261,0.97117 -1.57254,2.2432 -0.48165,1.5319 -0.94588,2.03348 -1.99261,2.15293 -0.39668,0.0453 -0.92977,0.0128 -1.1846,-0.0722 -0.25482,-0.085 -0.72158,-0.18579 -1.03724,-0.22406 -0.9387,-0.11384 -1.62907,-0.47181 -2.02019,-1.04754 -0.35589,-0.52385 -0.49006,-0.66932 -1.17667,-1.2757 -0.32048,-0.28303 -0.35697,-0.38594 -0.41908,-1.18215 -0.10324,-1.32281 0.12099,-2.781 0.77131,-5.01585 1.6571,-5.69458 2.07709,-7.55202 1.90761,-8.43638 -0.0635,-0.33147 -0.0167,-0.91175 0.10561,-1.30848 0.12087,-0.39207 0.25738,-0.83644 0.30336,-0.98749 0.046,-0.15104 0.0137,-0.75886 -0.0718,-1.35071 -0.0854,-0.59184 -0.16687,-1.20804 -0.18089,-1.36931 -0.0217,-0.24905 -0.049,-0.22774 -0.18113,0.14159 -0.15178,0.42402 -0.16282,0.43019 -0.44623,0.24946 -0.26453,-0.1687 -0.34643,-0.14906 -0.91309,0.2189 -0.82061,0.53287 -1.41429,0.7393 -1.80241,0.62676 -0.30645,-0.0889 -0.30926,-0.0998 -0.089,-0.34573 0.12505,-0.13969 0.40673,-0.3192 0.62591,-0.39897 0.2192,-0.0798 0.4857,-0.22073 0.5922,-0.31334 0.15393,-0.13372 0.0928,-0.17325 -0.29771,-0.19238 -0.79025,-0.0387 -0.62206,-0.35734 0.38583,-0.73094 0.50941,-0.18861 0.93031,-0.42247 0.9894,-0.54917 0.0805,-0.17262 0.0164,-0.19167 -0.29498,-0.0877 -0.48869,0.16329 -1.81971,-0.0841 -1.99081,-0.36993 -0.16235,-0.2713 0.17829,-0.39529 0.72972,-0.2656 0.41065,0.0966 0.42982,0.0857 0.55688,-0.31613 0.16587,-0.52458 0.15206,-0.5604 -0.48357,-1.2537 -0.44534,-0.48579 -0.53345,-0.66302 -0.57623,-1.15912 -0.0683,-0.7916 0.0814,-1.28255 0.35305,-1.15837 0.15332,0.0701 0.22031,0.25055 0.25845,0.69751 0.0421,0.48872 0.11778,0.66346 0.39946,0.92301 0.50802,0.46806 0.66998,0.44724 0.76474,-0.0984 0.0589,-0.339 0.19953,-0.54293 0.46173,-0.66941 0.20738,-0.10006 0.37412,-0.27577 0.37051,-0.39049 -0.005,-0.16475 -0.12418,-0.14879 -0.56577,0.0758 -0.30757,0.15643 -0.6487,0.36577 -0.75808,0.46526 -0.15313,0.13927 -0.22294,0.11467 -0.30374,-0.10733 -0.0754,-0.20711 0.0148,-0.39792 0.32039,-0.67806 0.23391,-0.21441 0.43582,-0.4101 0.44869,-0.43486 0.0129,-0.0247 -0.2837,-0.19891 -0.65903,-0.38704 -0.37535,-0.18813 -1.0424,-0.70416 -1.48237,-1.14675 -0.44949,-0.45219 -0.98333,-0.84787 -1.21859,-0.90319 -0.50212,-0.11807 -2.10328,-1.19452 -2.50017,-1.68084 -0.1557,-0.19079 -0.59789,-0.45396 -0.98262,-0.58483 -0.38475,-0.13087 -1.16383,-0.58737 -1.73131,-1.01445 -0.56748,-0.42707 -1.39349,-0.95113 -1.83557,-1.16456 -0.44208,-0.21344 -1.22771,-0.65345 -1.74584,-0.97782 -0.51813,-0.32437 -1.94883,-1.1586 -3.17932,-1.85382 -1.2305,-0.69524 -2.25639,-1.31659 -2.27976,-1.38079 -0.0234,-0.0643 0.0357,-0.18468 0.13127,-0.26773 0.1113,-0.0967 0.65521,0.0468 1.51307,0.39934 0.73663,0.3027 1.93456,0.75998 2.66207,1.0162 0.72751,0.25622 1.73984,0.63646 2.24961,0.84497 0.50978,0.2085 1.39982,0.51324 1.97787,0.67719 0.57805,0.16395 1.27706,0.4415 1.55337,0.61677 0.2763,0.17528 0.7924,0.35242 1.14691,0.39364 0.98895,0.11504 2.36167,0.56892 2.79284,0.92346 0.24922,0.20492 0.57254,0.30339 0.90455,0.2755 0.75088,-0.0631 2.19689,0.33805 2.83062,0.78521 0.34883,0.24614 0.70649,0.36706 0.98232,0.33214 0.56691,-0.0718 1.81171,0.0779 2.11314,0.25412 0.14764,0.0863 0.45702,0.0548 0.81998,-0.0836 0.34407,-0.13055 0.76326,-0.17979 1.02283,-0.11872 0.41671,0.098 0.48008,0.0752 1.20018,-0.43258 l 0.76048,-0.53538 5e-4,-0.86486 c 5.2e-4,-0.91954 0.22722,-1.54791 0.53537,-1.484 0.10385,0.0216 0.20283,0.19007 0.22232,0.37839 0.0356,0.34453 0.33968,0.55061 0.33076,0.22423 -0.003,-0.10273 0.10808,-0.17567 0.2629,-0.17294 0.19138,0.003 0.2715,0.0947 0.28093,0.32048 0.0123,0.29305 0.0484,0.29688 0.50053,0.0533 1.11698,-0.60167 1.1215,-0.60284 1.19726,-0.30881 0.0581,0.22566 0.15113,0.24828 0.49789,0.12129 0.35224,-0.12897 0.4372,-0.10656 0.48843,0.12912 0.0499,0.22951 0.18618,0.27438 0.69716,0.22945 0.34934,-0.0307 1.00594,0.0385 1.45912,0.15395 1.30491,0.33229 1.31885,0.33154 0.86597,-0.0462 -0.22625,-0.18872 -0.67484,-0.43763 -0.99689,-0.5531 -0.56727,-0.20343 -0.71289,-0.49401 -0.31931,-0.63726 0.31008,-0.11286 1.51584,0.44547 2.09993,0.97239 0.55014,0.49629 0.69842,0.54631 0.75864,0.25592 0.12327,-0.59431 1.42029,-0.0162 2.08367,0.92867 0.17893,0.2548 0.36938,0.44724 0.4233,0.42761 0.25658,-0.0934 0.23991,-1.13138 -0.028,-1.74176 -0.21979,-0.50067 -0.23713,-0.65736 -0.0817,-0.71394 0.22723,-0.0827 0.85614,0.64459 1.11916,1.29422 0.1559,0.38507 0.21495,0.414 0.58318,0.28593 0.22519,-0.0788 0.68164,-0.14338 1.01399,-0.14446 0.33237,-10e-4 0.78523,-0.0659 1.00636,-0.14398 0.66716,-0.23538 1.05497,-0.21815 1.15324,0.0519 0.0827,0.22726 -0.0272,0.29623 -1.13899,0.7145 -0.67675,0.25483 -1.36152,0.57068 -1.52157,0.70234 -0.19456,0.16 0.0333,0.0973 0.68735,-0.1893 1.08475,-0.47537 2.15815,-0.63209 3.11212,-0.45457 0.32294,0.0601 0.65921,0.0466 0.74726,-0.0299 0.24241,-0.21069 0.48138,0.16696 0.33431,0.52832 -0.0712,0.17495 -0.10437,0.38697 -0.0737,0.47117 0.0359,0.0985 -0.10841,0.18363 -0.40469,0.23871 -0.37625,0.07 -0.40777,0.0973 -0.1724,0.14969 0.15842,0.0352 0.32957,0.17825 0.38039,0.31787 0.0508,0.1396 0.21838,0.27431 0.37238,0.29934 0.154,0.025 0.25299,0.10343 0.21998,0.17422 -0.0331,0.0709 0.0387,0.21709 0.1594,0.32509 0.3077,0.27553 0.0209,0.55576 -1.12179,1.09616 -1.1373,0.53782 -0.87007,0.65153 0.58604,0.24934 0.54667,-0.15097 1.11969,-0.25866 1.27339,-0.23928 0.42687,0.0539 0.28239,0.59283 -0.24216,0.90336 -0.51633,0.30566 -0.50598,0.38711 0.0812,0.63892 l 0.44575,0.19116 0.70175,-0.52584 c 0.88145,-0.66048 1.17463,-0.63478 0.86173,0.0755 l -0.22933,0.52064 0.36767,-0.13381 c 0.20221,-0.0736 0.51427,-0.1128 0.69344,-0.0871 0.23561,0.0337 0.35148,-0.008 0.41861,-0.15236 0.051,-0.10946 0.20504,-0.23989 0.34221,-0.28982 0.18302,-0.0666 0.25251,-0.0165 0.26107,0.18835 0.01,0.23295 0.15437,0.27415 0.87446,0.24891 0.65222,-0.0228 0.89765,0.035 1.00555,0.23683 0.11454,0.21442 0.0701,0.29706 -0.22551,0.4193 -1.12146,0.46373 -1.6646,0.81998 -1.73165,1.13583 -0.095,0.4476 0.009,0.46617 0.86641,0.15421 0.40576,-0.14769 0.75649,-0.21702 0.77941,-0.15405 0.0229,0.063 0.37617,-0.007 0.78501,-0.15608 0.8937,-0.32528 1.42422,-0.29915 1.29435,0.0637 -0.0688,0.19214 0.0579,0.32876 0.6064,0.654 0.38132,0.22613 0.71711,0.47653 0.7462,0.55645 0.11137,0.30598 -0.18813,0.41937 -0.6292,0.23859 -0.41682,-0.17111 -0.44162,-0.16711 -0.26499,0.0428 0.10722,0.12735 0.33478,0.52096 0.50576,0.87467 0.17099,0.3537 0.42702,0.75572 0.56896,0.89338 0.2279,0.22105 0.21664,0.34143 -0.0968,1.0303 -0.31751,0.69788 -0.32729,0.81191 -0.0929,1.08328 0.28488,0.32984 0.22269,0.53436 -0.16052,0.52772 -0.32692,-0.006 -0.30987,0.0198 0.63007,0.94004 0.45158,0.44213 0.93238,1.00435 1.06846,1.24938 0.49088,0.88393 0.5747,0.9722 0.89472,0.94226 l 0.32495,-0.0304 -0.18317,0.42711 c -0.19604,0.45713 -0.0313,0.79717 0.45952,0.94848 0.21598,0.0666 0.24585,0.12624 0.15851,0.3168 -0.0874,0.19076 -0.0383,0.25597 0.26182,0.34788 0.46179,0.14143 0.41542,0.44038 -0.0973,0.62698 -0.35785,0.13025 -0.37186,0.17067 -0.17263,0.49823 0.33804,0.55575 0.0523,0.67912 -0.52966,0.22875 -0.49123,-0.38018 -1.09201,-0.51724 -1.20501,-0.27492 -0.0271,0.0582 0.14963,0.20264 0.39288,0.32087 0.9679,0.47046 1.20251,0.64156 1.31913,0.96195 0.10677,0.29337 0.17809,0.31271 0.58741,0.15947 0.25608,-0.0964 0.67461,-0.30226 0.92964,-0.45866 0.41308,-0.25315 0.4744,-0.25493 0.56121,-0.0164 0.0716,0.19672 -0.0289,0.36189 -0.37851,0.6223 -0.26177,0.195 -0.46026,0.39765 -0.44107,0.45039 0.0192,0.0527 0.37761,0.002 0.79648,-0.1119 0.41887,-0.11425 0.84992,-0.16655 0.9579,-0.11621 0.40475,0.18874 0.10762,0.45268 -0.93805,0.83327 -1.1672,0.42483 -1.24373,0.56559 -0.46277,0.85106 0.73363,0.26815 1.89573,1.37494 2.28442,2.17565 0.34338,0.70749 0.29093,1.10112 -0.12118,0.90895 -0.30395,-0.14174 -0.60515,0.0117 -0.42651,0.21717 0.0837,0.0962 0.0779,0.33406 -0.0128,0.52852 -0.18263,0.39165 -0.16705,0.40109 0.61276,0.37193 0.30119,-0.0113 0.65074,0.0398 0.77678,0.11348 0.39724,0.23222 -0.0958,0.48201 -0.98917,0.50113 -0.54147,0.0116 -0.82928,0.0751 -0.85563,0.18891 -0.0219,0.0943 -0.11826,0.23615 -0.21425,0.31525 -0.21804,0.1796 0.47718,0.21466 1.36158,0.0686 0.79631,-0.13151 1.06641,-0.0136 0.758,0.33075 -0.12786,0.14284 -0.36994,0.29257 -0.53792,0.33284 -0.36899,0.0884 -0.84828,0.45167 -0.79373,0.60154 0.0217,0.0595 0.16383,0.15274 0.31595,0.20718 0.15211,0.0544 0.69539,0.3925 1.20727,0.75128 0.51189,0.35878 1.08438,0.70617 1.27219,0.77197 0.48644,0.17045 0.37144,0.50598 -0.2115,0.617 -0.30806,0.0587 -0.49815,0.1728 -0.55563,0.33319 -0.0603,0.16851 -0.29391,0.30032 -0.75503,0.42604 l -0.6677,0.18204 0.61828,0.63364 c 0.75959,0.77846 0.87431,1.00052 0.56162,1.08701 -0.3805,0.10518 -0.0534,0.76647 0.55865,1.12951 0.28915,0.17151 1.22124,0.68447 2.07131,1.13995 0.85006,0.45547 1.75558,1.02377 2.01227,1.26289 0.25668,0.23912 0.71589,0.50996 1.02047,0.60186 0.30457,0.0919 2.54429,0.4 4.97716,0.68465 7.05869,0.8259 10.82073,1.56152 15.8378,3.09688 4.26969,1.30665 6.61758,2.3823 8.709,3.98994 0.53247,0.40931 1.04045,0.71787 1.12884,0.6857 0.17575,-0.064 0.76114,-0.58359 1.53729,-1.36456 0.40624,-0.40878 0.75671,-0.59625 1.89902,-1.01584 1.38594,-0.5087 1.41138,-0.51277 2.39528,-0.31306 2.21398,0.44858 5.17301,2.46586 5.70856,3.89173 0.0882,0.23352 0.34755,0.58152 0.5773,0.77301 0.58713,0.48937 1.07769,1.38553 2.32108,4.24027 0.81591,1.87326 1.18117,2.87264 1.48172,4.05345 0.33418,1.3139 0.51979,1.79218 1.14812,2.95824 0.53101,0.98561 1.27086,2.76607 2.5386,6.10916 l 1.78921,4.71816 1.17758,1.33538 c 0.71843,0.81471 1.17576,1.44013 1.17292,1.60401 -0.007,0.42773 -0.39055,0.16695 -1.53332,-1.04369 -0.97256,-1.03032 -0.99743,-1.04617 -0.67963,-0.43326 1.48367,2.86137 1.52854,2.93003 2.34025,3.58085 0.43868,0.35174 0.86691,0.6539 0.95163,0.67147 0.2475,0.0513 0.36157,0.54356 0.14426,0.62265 -0.10914,0.0397 -0.45633,-0.11941 -0.77152,-0.35363 -0.56857,-0.42251 -0.57238,-0.42286 -0.48311,-0.0457 0.13459,0.56859 1.17381,1.82396 2.54841,3.07853 1.19396,1.08969 1.40569,1.40857 0.92982,1.40032 -0.20338,-0.004 -0.17955,0.053 0.18201,0.43192 0.60034,0.62925 1.52242,1.92326 1.68109,2.35919 0.0763,0.20955 0.0603,0.44032 -0.0361,0.52414 -0.11419,0.0992 -0.10538,0.3369 0.0261,0.7042 0.10889,0.30502 0.17464,0.86374 0.14553,1.24183 -0.0498,0.64748 0.0744,1.86872 0.32024,3.14778 0.12939,0.67324 0.0164,1.27964 -0.25691,1.37913 -0.10848,0.0395 -0.23762,-0.0391 -0.28695,-0.17462 -0.0885,-0.24306 -0.63668,-0.54796 -0.84737,-0.47127 -0.0596,0.0217 -0.21651,-0.0331 -0.34874,-0.12168 -0.20248,-0.13567 -0.21912,-0.0245 -0.10536,0.7044 0.13425,0.86017 0.021,1.3513 -0.29653,1.28544 -0.0913,-0.0189 -0.1492,0.12752 -0.12872,0.32539 0.0443,0.4279 -0.23253,0.72129 -0.44735,0.4741 -0.0835,-0.0962 -0.19973,-0.42245 -0.25855,-0.72497 -0.0584,-0.3027 -0.22093,-0.68331 -0.36128,-0.84583 -0.23028,-0.26663 -0.32524,-0.27 -0.97236,-0.0345 -0.54471,0.19825 -0.75151,0.34546 -0.85999,0.61194 -0.0786,0.193 -0.19897,0.33927 -0.2676,0.32503 -0.26095,-0.0541 -1.12116,-0.94927 -1.54684,-1.60967 l -0.44353,-0.68808 0.17549,0.7462 c 0.18779,0.79866 0.1259,1.21242 -0.18069,1.2071 -0.1045,-0.002 -0.20491,0.18525 -0.22302,0.41568 -0.0425,0.54064 -0.32262,0.42577 -0.74539,-0.30567 -0.17075,-0.29546 -0.71861,-0.98507 -1.2174,-1.53247 -0.4988,-0.5474 -1.33659,-1.60373 -1.86176,-2.34738 -0.52515,-0.74365 -1.01704,-1.4312 -1.09309,-1.52788 -0.0848,-0.10788 -0.19882,0.25503 -0.29504,0.93927 -0.2023,1.43853 -0.5354,2.81147 -0.72247,2.97787 -0.31759,0.2825 -0.4099,-0.22856 -0.20597,-1.14037 0.11774,-0.52649 0.2762,-1.62085 0.35211,-2.43193 l 0.13803,-1.47469 -0.70296,-1.3927 c -0.55976,-1.10901 -0.75983,-1.6511 -0.98222,-2.6612 l -0.27927,-1.26849 -1.17866,-1.41274 c -1.62536,-1.94813 -3.05898,-4.40566 -3.87024,-6.63435 -0.89078,-2.44717 -1.50006,-6.37106 -1.40778,-9.06642 0.0262,-0.76599 -0.0395,-1.5424 -0.15807,-1.86825 -0.32167,-0.88377 -0.64903,-2.9631 -0.68519,-4.3521 -0.0183,-0.70158 -0.0895,-1.28915 -0.15822,-1.30571 -0.0688,-0.0166 -0.38458,-0.60974 -0.70181,-1.31817 -0.68873,-1.53798 -1.3507,-2.3598 -2.32569,-2.88727 -0.78281,-0.42349 -0.96937,-0.34508 -0.84668,0.35584 0.32723,1.8692 0.57609,4.14099 0.52745,4.81481 -0.14164,1.96238 -1.16515,4.80217 -2.26806,6.2929 -0.95838,1.29538 -1.27212,2.1112 -1.62823,4.23386 -0.28698,1.71054 -0.24938,1.9267 0.61725,3.54892 0.84616,1.5839 0.80916,1.54547 7.76323,8.05758 0.71307,0.66774 0.84757,0.86968 1.13519,1.70432 0.58111,1.68633 0.60225,2.38189 0.12328,4.05314 -1.22541,4.27582 -1.46088,5.58147 -1.67594,9.29336 -0.11468,1.9793 -0.26168,3.79669 -0.32668,4.03867 -0.065,0.24198 -0.10951,0.68204 -0.099,0.97792 0.0302,0.84643 -0.67373,1.10727 -1.71444,1.81558 -0.48742,0.33175 -0.53426,0.41829 -0.43539,0.80438 0.0609,0.23796 0.27046,0.57964 0.46546,0.7594 0.45277,0.41715 0.69377,1.06675 0.46904,1.26237 -0.11884,0.10338 -0.10251,0.3417 0.0527,0.76819 0.2628,0.72204 0.2251,1.48899 -0.0932,1.8962 -0.79963,1.02295 -2.38321,1.56734 -3.52281,1.69096 z m 19.1561,-19.37874 c -0.21521,-0.4416 -0.44227,-0.78434 -0.50459,-0.76165 -0.0623,0.0227 -0.0329,0.39316 0.0655,0.82328 0.13439,0.58793 0.31526,0.96322 0.72851,1.51203 l 0.54972,0.73 -0.22395,-0.75037 c -0.12318,-0.4127 -0.40032,-1.11157 -0.61516,-1.5533 z m -1.89626,-2.75075 c -0.31415,-0.71754 -0.7566,-1.67953 -0.98332,-2.13773 l -0.41224,-0.83309 0.21508,1.38071 c 0.22307,1.43194 0.4505,1.95502 1.49631,3.4414 l 0.33889,0.48165 -0.0418,-0.51415 c -0.0232,-0.28515 -0.29614,-1.0952 -0.61293,-1.81879 z m 1.43186,-0.0705 c -0.44223,-0.83558 -0.77338,-1.36609 -0.73588,-1.17891 0.0663,0.33072 0.99749,2.16883 1.32054,2.60657 0.38066,0.51575 0.16425,-0.0126 -0.58466,-1.42766 z m 7.31291,-4.48008 c -0.0848,-0.0975 -0.17233,-0.13824 -0.19459,-0.0905 -0.0223,0.0478 0.0225,0.13647 0.0994,0.1972 0.20925,0.16515 0.27116,0.0957 0.0952,-0.10679 z m -11.44403,-0.0214 c -0.14262,-0.30385 -0.0846,-0.0716 0.12885,0.51627 0.21336,0.58785 0.33008,0.83643 0.25909,0.55252 -0.0709,-0.28395 -0.24551,-0.76489 -0.38806,-1.06875 z m -1.60451,-3.51476 c -0.29135,-0.64492 -0.58656,-1.2173 -0.65588,-1.27202 -0.18957,-0.14961 -0.40091,0.66879 -0.26903,1.04174 0.0631,0.17911 0.39698,0.68819 0.74147,1.13148 0.83176,1.07028 0.90709,0.70023 0.18344,-0.9012 z m -1.5323,-2.49411 c -0.1365,-0.36626 -0.46613,-1.09707 -0.73136,-1.62444 -0.45241,-0.89968 -0.47898,-0.92736 -0.43046,-0.44832 0.0285,0.2808 -0.0131,0.61271 -0.0922,0.73757 -0.12301,0.19408 -0.0635,0.38093 0.40993,1.28768 0.30459,0.58336 0.62682,1.15911 0.71608,1.27943 0.31158,0.41992 0.40605,-0.48931 0.12801,-1.23192 z m 6.5324,-9.50111 c -0.70562,-1.77145 -1.31698,-3.17763 -1.35864,-3.12486 -0.12108,0.15341 0.99862,4.15681 1.33133,4.76012 0.46009,0.83428 1.32154,2.00007 1.31554,1.78031 -0.003,-0.10712 -0.58266,-1.64411 -1.28819,-3.41559 z m -8.99373,2.91008 c -0.2656,-1.55316 -1.02753,-4.6144 -1.16439,-4.67822 -0.13855,-0.0646 0.21719,3.37112 0.48645,4.69809 0.15719,0.77467 0.49871,1.97759 0.75893,2.67315 l 0.47318,1.26466 -0.13706,-1.16011 c -0.0754,-0.63807 -0.26306,-1.89698 -0.41707,-2.79758 z m -47.81999,-37.80121 c -0.24313,-0.16106 -0.4642,-0.2848 -0.49127,-0.27495 -0.0271,0.01 0.12295,0.15945 0.3333,0.33245 0.21039,0.17298 0.43146,0.29671 0.49128,0.27493 0.0599,-0.0218 -0.0903,-0.17133 -0.33331,-0.33243 z m -0.1298,-5.82457 c -0.15687,-0.43101 -1.00575,-1.21808 -1.60654,-1.48958 -0.39455,-0.1783 -0.70028,-0.27722 -0.6794,-0.21985 0.0209,0.0574 0.40751,0.4651 0.85915,0.90605 0.45165,0.44095 0.84623,0.87056 0.87685,0.95467 0.0306,0.0841 0.17586,0.10917 0.32277,0.0557 0.14692,-0.0535 0.24916,-0.14656 0.22717,-0.20699 z m -1.39284,0.13971 c -0.29522,-0.39448 -0.51699,-0.46907 -0.52208,-0.17559 -0.006,0.35008 0.25197,0.6142 0.50872,0.52075 0.1593,-0.058 0.16269,-0.14562 0.0134,-0.34516 z m -1.24815,-0.33134 c -0.0881,-0.24196 -1.0237,-0.76585 -0.94382,-0.52848 0.0524,0.15559 0.86896,0.77416 0.97235,0.73653 0.0229,-0.008 0.01,-0.10198 -0.0286,-0.20804 z m -1.37397,-6.68381 c -0.0574,-0.15757 -0.37918,-0.23133 -0.44004,-0.10084 -0.0608,0.13048 0.20255,0.32961 0.36011,0.27227 0.0692,-0.0252 0.10508,-0.10231 0.0799,-0.17143 z m -1.64444,0.0582 c -0.28291,-0.14283 -0.46665,-0.15839 -0.51998,-0.044 -0.11523,0.24711 0.33962,0.4898 0.68345,0.36466 0.2654,-0.0966 0.26023,-0.10674 -0.16352,-0.32062 z m 0.39898,-1.96305 c -0.089,-0.10245 -0.32454,-0.10391 -0.59976,-0.004 -0.56827,0.20684 -0.53944,0.30455 0.0991,0.33583 0.55736,0.0273 0.71952,-0.0802 0.50064,-0.3321 z m -1.48754,-0.75012 c -0.2881,-0.0646 -0.82506,-0.34706 -1.19322,-0.62765 -0.36816,-0.28058 -0.68708,-0.47223 -0.70869,-0.42587 -0.16655,0.35716 1.67191,1.45218 2.14306,1.27647 0.24297,-0.0906 0.20904,-0.12196 -0.24115,-0.22295 z m -0.36913,-1.1358 c -0.1895,-0.14159 -0.40681,-0.23477 -0.4829,-0.20707 -0.15112,0.055 0.0134,0.22529 0.45994,0.47632 0.41303,0.23216 0.42987,0.0348 0.023,-0.26925 z m -2.12224,-2.64837 c -0.1377,-0.12337 -0.27119,-0.17982 -0.29654,-0.12546 -0.07,0.15015 0.24264,0.46053 0.40456,0.4016 0.0988,-0.036 0.0657,-0.12063 -0.10796,-0.27616 z m 1.97937,-0.91801 c 0.20988,-0.32571 -0.12971,-1.34194 -0.62968,-1.88412 -0.70019,-0.75943 -2.05572,-0.81768 -2.02521,-0.087 0.0108,0.25801 0.16422,0.3898 0.73784,0.63336 0.9572,0.40647 1.52811,0.87386 1.40083,1.14684 -0.0705,0.15128 -0.18505,0.15397 -0.43973,0.0103 -0.19628,-0.11072 -0.50305,-0.13651 -0.71338,-0.0599 l -0.36904,0.13432 0.66771,0.28226 c 0.70959,0.29997 1.0959,0.25038 1.37062,-0.17594 z m -2.40068,-0.88193 c -0.0721,-0.057 -0.22131,-0.0707 -0.33149,-0.0306 -0.11019,0.0401 -0.14134,0.11945 -0.0692,0.17644 0.0721,0.057 0.22132,0.0707 0.3315,0.0306 0.11019,-0.0401 0.14134,-0.11944 0.0692,-0.17643 z m -1.21305,-0.10362 c -0.0606,-0.0283 -0.17747,0.009 -0.25982,0.0827 -0.091,0.0813 -0.0479,0.10149 0.1101,0.0513 0.14284,-0.0456 0.2103,-0.1057 0.14977,-0.1339 z m -0.32009,-1.22419 c 0.17632,-0.27256 0.15762,-0.27972 -0.30357,-0.11638 -0.58651,0.20815 -0.89809,0.45377 -0.73624,0.5815 0.18426,0.14544 0.83242,-0.1445 1.03982,-0.46508 z m -1.64743,-0.0259 c -0.0606,-0.0283 -0.17746,0.009 -0.25981,0.0826 -0.0911,0.0813 -0.0479,0.1015 0.11001,0.0514 0.14284,-0.0456 0.2103,-0.10571 0.14977,-0.13391 z m -16.90652,-8.1239 c -0.0721,-0.057 -0.19126,-0.0816 -0.26471,-0.0549 -0.0735,0.0268 -0.0746,0.0951 -0.002,0.15213 0.0721,0.057 0.19126,0.0816 0.26472,0.0549 0.0735,-0.0267 0.0746,-0.0951 0.002,-0.15213 z m -2.65577,-0.44001 c -0.07,-0.19245 -0.44081,-0.39919 -0.60725,-0.33861 -0.0588,0.0214 -0.0522,0.18914 0.0147,0.37279 0.0891,0.24485 0.19275,0.30796 0.38863,0.23667 0.14692,-0.0535 0.2387,-0.17531 0.20392,-0.27085 z m 0.88272,-0.27584 c 0.0186,-0.09 -0.0296,-0.14047 -0.10744,-0.11215 -0.0778,0.0283 -0.11959,0.11153 -0.0928,0.18504 0.0267,0.0735 0.0751,0.12391 0.10753,0.11211 0.0324,-0.0118 0.0742,-0.095 0.0928,-0.18503 z"
     id="path4348"
     inkscape:connector-curvature="0"
     sodipodi:nodetypes="ccccscscsccccsccccccccccccccsscssscscsccssssssccssscccccscssccsscccsscccscsscscccsccscssssssssccsscssscsssccscscsccccscscscccccsccccccccccsccccccccsccccccsccscsscccscsccccsccccccccccccccccccccsscccccccccsccccccccccccccccsscscccccccccsccccccscccccccccscsccccccccccccccccsccccccscccsccccscccscscsscssssccccccsccscscsscccscscccccccccccsccccccccscccccsccsscscsscsscccccscsssssssssccccccccccccccccccccssccccsccscccccccccccccccccccsccccscccccscccccccccccscscccccccccccccccccccccccccscccccccccccccccccccccccccscccccccccccccccccccccccccccccccccccccccc"
     inkscape:export-xdpi="68.660004"
     inkscape:export-ydpi="68.660004" />
  <g
     inkscape:export-ydpi="128"
     inkscape:export-xdpi="128"
     id="g4767"
     transform="translate(-0.70710678,152.73506)">
    <g
       id="g4769"
       transform="translate(-111.67915,-32.613907)"
       inkscape:export-xdpi="300"
       inkscape:export-ydpi="300">
      <path
         inkscape:connector-curvature="0"
         d="m 597.05636,223.84825 140.673,0 c 3.1186,0 5.6294,2.2456 5.6294,5.0351 l 0,35.862 c 0,2.7894 -2.5107,5.0351 -5.6294,5.0351 l -140.673,0 c -3.1186,0 -5.6294,-2.2457 -5.6294,-5.0351 l 0,-35.862 c 0,-2.7895 2.5107,-5.0351 5.6294,-5.0351 z"
         id="path4771"
         style="fill:#2f2930;stroke:none;stroke-width:2.7019999;stroke-linecap:round;stroke-linejoin:round;stroke-miterlimit:13.65400028"
         sodipodi:nodetypes="sssssssss" />
    </g>
    <text
       inkscape:export-ydpi="128.36"
       inkscape:export-xdpi="128.36"
       sodipodi:linespacing="125%"
       id="text4773"
       y="222.27045"
       x="526.31018"
       style="font-style:normal;font-weight:normal;font-size:16.25px;line-height:125%;font-family:sans-serif;letter-spacing:0px;word-spacing:0px;fill:#2f2930;fill-opacity:1;stroke:none;stroke-width:1px;stroke-linecap:butt;stroke-linejoin:miter;stroke-opacity:1"
       xml:space="preserve"><tspan
         id="tspan4775"
         style="font-style:normal;font-variant:normal;font-weight:bold;font-stretch:normal;font-size:30px;font-family:Purisa;-inkscape-font-specification:'Purisa Bold';fill:#ffffff;fill-opacity:1"
         y="222.27045"
         x="526.31018"
         sodipodi:role="line">Buy</tspan></text>
  </g>
  <g
     transform="translate(-0.70710678,52.735065)"
     id="g4777"
     inkscape:export-xdpi="128"
     inkscape:export-ydpi="128">
    <g
       inkscape:export-ydpi="128"
       inkscape:export-xdpi="128"
       transform="translate(-111.67915,-32.613907)"
       id="g4779">
      <path
         sodipodi:nodetypes="sssssssss"
         style="fill:#2f2930;stroke:none;stroke-width:2.7019999;stroke-linecap:round;stroke-linejoin:round;stroke-miterlimit:13.65400028"
         id="path4781"
         d="m 597.05636,223.84825 140.673,0 c 3.1186,0 5.6294,2.2456 5.6294,5.0351 l 0,35.862 c 0,2.7894 -2.5107,5.0351 -5.6294,5.0351 l -140.673,0 c -3.1186,0 -5.6294,-2.2457 -5.6294,-5.0351 l 0,-35.862 c 0,-2.7895 2.5107,-5.0351 5.6294,-5.0351 z"
         inkscape:connector-curvature="0" />
    </g>
    <text
       xml:space="preserve"
       style="font-style:normal;font-weight:normal;font-size:16.25px;line-height:125%;font-family:sans-serif;letter-spacing:0px;word-spacing:0px;fill:#ff50a2;fill-opacity:1;stroke:none;stroke-width:1px;stroke-linecap:butt;stroke-linejoin:miter;stroke-opacity:1"
       x="526.31018"
       y="222.27045"
       id="text4783"
       sodipodi:linespacing="125%"
       inkscape:export-xdpi="128.36"
       inkscape:export-ydpi="128.36"><tspan
         sodipodi:role="line"
         x="526.31018"
         y="222.27045"
         style="font-style:normal;font-variant:normal;font-weight:bold;font-stretch:normal;font-size:30px;font-family:Purisa;-inkscape-font-specification:'Purisa Bold';fill:#ff50a2;fill-opacity:1"
         id="tspan4785">Buy</tspan></text>
  </g>
  <g
     transform="translate(-0.70710678,102.73506)"
     id="g4787"
     inkscape:export-xdpi="128"
     inkscape:export-ydpi="128">
    <g
       inkscape:export-ydpi="300"
       inkscape:export-xdpi="300"
       transform="translate(-111.67915,-32.613907)"
       id="g4789">
      <path
         sodipodi:nodetypes="sssssssss"
         style="fill:#2f2930;stroke:none;stroke-width:2.7019999;stroke-linecap:round;stroke-linejoin:round;stroke-miterlimit:13.65400028"
         id="path4792"
         d="m 597.05636,223.84825 140.673,0 c 3.1186,0 5.6294,2.2456 5.6294,5.0351 l 0,35.862 c 0,2.7894 -2.5107,5.0351 -5.6294,5.0351 l -140.673,0 c -3.1186,0 -5.6294,-2.2457 -5.6294,-5.0351 l 0,-35.862 c 0,-2.7895 2.5107,-5.0351 5.6294,-5.0351 z"
         inkscape:connector-curvature="0" />
    </g>
    <text
       xml:space="preserve"
       style="font-style:normal;font-weight:normal;font-size:16.25px;line-height:125%;font-family:sans-serif;letter-spacing:0px;word-spacing:0px;fill:#6e6e6e;fill-opacity:1;stroke:none;stroke-width:1px;stroke-linecap:butt;stroke-linejoin:miter;stroke-opacity:1"
       x="526.31018"
       y="222.27045"
       id="text4794"
       sodipodi:linespacing="125%"
       inkscape:export-xdpi="128.36"
       inkscape:export-ydpi="128.36"><tspan
         sodipodi:role="line"
         x="526.31018"
         y="222.27045"
         style="font-style:normal;font-variant:normal;font-weight:bold;font-stretch:normal;font-size:30px;font-family:Purisa;-inkscape-font-specification:'Purisa Bold';fill:#6e6e6e;fill-opacity:1"
         id="tspan4796">Buy</tspan></text>
  </g>
</svg>
